<?xml version="1.0" encoding="UTF-8" standalone="no"?>
<!DOCTYPE svg PUBLIC "-//W3C//DTD SVG 1.1//EN"
 "http://www.w3.org/Graphics/SVG/1.1/DTD/svg11.dtd">
<!-- Generated by graphviz version 2.36.0 (20140111.2315)
 -->
<!-- Title: controllers_diagram Pages: 1 -->
<svg width="1745pt" height="1712pt"
 viewBox="0.00 0.00 1745.09 1712.03" xmlns="http://www.w3.org/2000/svg" xmlns:xlink="http://www.w3.org/1999/xlink">
<g id="graph0" class="graph" transform="scale(1 1) rotate(0) translate(4 1708.03)">
<title>controllers_diagram</title>
<polygon fill="none" stroke="none" points="-4,4 -4,-1708.03 1741.09,-1708.03 1741.09,4 -4,4"/>
<!-- _diagram_info -->
<g id="node1" class="node"><title>_diagram_info</title>
<text text-anchor="start" x="904" y="-63.6" font-family="Times,serif" font-size="13.00">Controllers diagram</text>
<text text-anchor="start" x="904" y="-49.6" font-family="Times,serif" font-size="13.00">Date: May 24 2017 &#45; 15:42</text>
<text text-anchor="start" x="904" y="-35.6" font-family="Times,serif" font-size="13.00">Migration version: 20170523184801</text>
<text text-anchor="start" x="904" y="-21.6" font-family="Times,serif" font-size="13.00">Generated by RailRoady 1.5.2</text>
<text text-anchor="start" x="904" y="-7.6" font-family="Times,serif" font-size="13.00">http://railroady.prestonlee.com</text>
</g>
<!-- Admin::BooksController -->
<g id="node2" class="node"><title>Admin::BooksController</title>
<path fill="none" stroke="black" d="M430.081,-559.123C430.081,-559.123 595.081,-559.123 595.081,-559.123 601.081,-559.123 607.081,-565.123 607.081,-571.123 607.081,-571.123 607.081,-640.123 607.081,-640.123 607.081,-646.123 601.081,-652.123 595.081,-652.123 595.081,-652.123 430.081,-652.123 430.081,-652.123 424.081,-652.123 418.081,-646.123 418.081,-640.123 418.081,-640.123 418.081,-571.123 418.081,-571.123 418.081,-565.123 424.081,-559.123 430.081,-559.123"/>
<text text-anchor="middle" x="512.581" y="-636.923" font-family="Times,serif" font-size="14.00">Admin::BooksController</text>
<polyline fill="none" stroke="black" points="418.081,-629.123 607.081,-629.123 "/>
<text text-anchor="start" x="426.081" y="-613.923" font-family="Times,serif" font-size="14.00">index</text>
<polyline fill="none" stroke="black" points="418.081,-606.123 607.081,-606.123 "/>
<polyline fill="none" stroke="black" points="418.081,-582.123 607.081,-582.123 "/>
<text text-anchor="start" x="426.081" y="-566.923" font-family="Times,serif" font-size="14.00">_layout</text>
</g>
<!-- Admin::CategoriesController -->
<g id="node3" class="node"><title>Admin::CategoriesController</title>
<path fill="none" stroke="black" d="M1240.19,-766.004C1240.19,-766.004 1440.19,-766.004 1440.19,-766.004 1446.19,-766.004 1452.19,-772.004 1452.19,-778.004 1452.19,-778.004 1452.19,-967.004 1452.19,-967.004 1452.19,-973.004 1446.19,-979.004 1440.19,-979.004 1440.19,-979.004 1240.19,-979.004 1240.19,-979.004 1234.19,-979.004 1228.19,-973.004 1228.19,-967.004 1228.19,-967.004 1228.19,-778.004 1228.19,-778.004 1228.19,-772.004 1234.19,-766.004 1240.19,-766.004"/>
<text text-anchor="middle" x="1340.19" y="-963.804" font-family="Times,serif" font-size="14.00">Admin::CategoriesController</text>
<polyline fill="none" stroke="black" points="1228.19,-956.004 1452.19,-956.004 "/>
<text text-anchor="start" x="1236.19" y="-940.804" font-family="Times,serif" font-size="14.00">create</text>
<text text-anchor="start" x="1236.19" y="-925.804" font-family="Times,serif" font-size="14.00">destroy</text>
<text text-anchor="start" x="1236.19" y="-910.804" font-family="Times,serif" font-size="14.00">edit</text>
<text text-anchor="start" x="1236.19" y="-895.804" font-family="Times,serif" font-size="14.00">index</text>
<text text-anchor="start" x="1236.19" y="-880.804" font-family="Times,serif" font-size="14.00">new</text>
<text text-anchor="start" x="1236.19" y="-865.804" font-family="Times,serif" font-size="14.00">show</text>
<text text-anchor="start" x="1236.19" y="-850.804" font-family="Times,serif" font-size="14.00">update</text>
<polyline fill="none" stroke="black" points="1228.19,-843.004 1452.19,-843.004 "/>
<polyline fill="none" stroke="black" points="1228.19,-819.004 1452.19,-819.004 "/>
<text text-anchor="start" x="1236.19" y="-803.804" font-family="Times,serif" font-size="14.00">_layout</text>
<text text-anchor="start" x="1236.19" y="-788.804" font-family="Times,serif" font-size="14.00">category_params</text>
<text text-anchor="start" x="1236.19" y="-773.804" font-family="Times,serif" font-size="14.00">set_category</text>
</g>
<!-- Admin::DashboardController -->
<g id="node4" class="node"><title>Admin::DashboardController</title>
<path fill="none" stroke="black" d="M1009.38,-158.636C1009.38,-158.636 1208.38,-158.636 1208.38,-158.636 1214.38,-158.636 1220.38,-164.636 1220.38,-170.636 1220.38,-170.636 1220.38,-239.636 1220.38,-239.636 1220.38,-245.636 1214.38,-251.636 1208.38,-251.636 1208.38,-251.636 1009.38,-251.636 1009.38,-251.636 1003.38,-251.636 997.378,-245.636 997.378,-239.636 997.378,-239.636 997.378,-170.636 997.378,-170.636 997.378,-164.636 1003.38,-158.636 1009.38,-158.636"/>
<text text-anchor="middle" x="1108.88" y="-236.436" font-family="Times,serif" font-size="14.00">Admin::DashboardController</text>
<polyline fill="none" stroke="black" points="997.378,-228.636 1220.38,-228.636 "/>
<text text-anchor="start" x="1005.38" y="-213.436" font-family="Times,serif" font-size="14.00">index</text>
<polyline fill="none" stroke="black" points="997.378,-205.636 1220.38,-205.636 "/>
<polyline fill="none" stroke="black" points="997.378,-181.636 1220.38,-181.636 "/>
<text text-anchor="start" x="1005.38" y="-166.436" font-family="Times,serif" font-size="14.00">_layout</text>
</g>
<!-- Admin::ProductsController -->
<g id="node5" class="node"><title>Admin::ProductsController</title>
<path fill="none" stroke="black" d="M760.978,-1069.71C760.978,-1069.71 946.978,-1069.71 946.978,-1069.71 952.978,-1069.71 958.978,-1075.71 958.978,-1081.71 958.978,-1081.71 958.978,-1285.71 958.978,-1285.71 958.978,-1291.71 952.978,-1297.71 946.978,-1297.71 946.978,-1297.71 760.978,-1297.71 760.978,-1297.71 754.978,-1297.71 748.978,-1291.71 748.978,-1285.71 748.978,-1285.71 748.978,-1081.71 748.978,-1081.71 748.978,-1075.71 754.978,-1069.71 760.978,-1069.71"/>
<text text-anchor="middle" x="853.978" y="-1282.51" font-family="Times,serif" font-size="14.00">Admin::ProductsController</text>
<polyline fill="none" stroke="black" points="748.978,-1274.71 958.978,-1274.71 "/>
<text text-anchor="start" x="756.978" y="-1259.51" font-family="Times,serif" font-size="14.00">create</text>
<text text-anchor="start" x="756.978" y="-1244.51" font-family="Times,serif" font-size="14.00">destroy</text>
<text text-anchor="start" x="756.978" y="-1229.51" font-family="Times,serif" font-size="14.00">edit</text>
<text text-anchor="start" x="756.978" y="-1214.51" font-family="Times,serif" font-size="14.00">index</text>
<text text-anchor="start" x="756.978" y="-1199.51" font-family="Times,serif" font-size="14.00">new</text>
<text text-anchor="start" x="756.978" y="-1184.51" font-family="Times,serif" font-size="14.00">show</text>
<text text-anchor="start" x="756.978" y="-1169.51" font-family="Times,serif" font-size="14.00">update</text>
<polyline fill="none" stroke="black" points="748.978,-1161.71 958.978,-1161.71 "/>
<polyline fill="none" stroke="black" points="748.978,-1137.71 958.978,-1137.71 "/>
<text text-anchor="start" x="756.978" y="-1122.51" font-family="Times,serif" font-size="14.00">_layout</text>
<text text-anchor="start" x="756.978" y="-1107.51" font-family="Times,serif" font-size="14.00">product_params</text>
<text text-anchor="start" x="756.978" y="-1092.51" font-family="Times,serif" font-size="14.00">set_categories</text>
<text text-anchor="start" x="756.978" y="-1077.51" font-family="Times,serif" font-size="14.00">set_product</text>
</g>
<!-- Admin::SizesController -->
<g id="node6" class="node"><title>Admin::SizesController</title>
<path fill="none" stroke="black" d="M1149.35,-1089.34C1149.35,-1089.34 1307.35,-1089.34 1307.35,-1089.34 1313.35,-1089.34 1319.35,-1095.34 1319.35,-1101.34 1319.35,-1101.34 1319.35,-1290.34 1319.35,-1290.34 1319.35,-1296.34 1313.35,-1302.34 1307.35,-1302.34 1307.35,-1302.34 1149.35,-1302.34 1149.35,-1302.34 1143.35,-1302.34 1137.35,-1296.34 1137.35,-1290.34 1137.35,-1290.34 1137.35,-1101.34 1137.35,-1101.34 1137.35,-1095.34 1143.35,-1089.34 1149.35,-1089.34"/>
<text text-anchor="middle" x="1228.35" y="-1287.14" font-family="Times,serif" font-size="14.00">Admin::SizesController</text>
<polyline fill="none" stroke="black" points="1137.35,-1279.34 1319.35,-1279.34 "/>
<text text-anchor="start" x="1145.35" y="-1264.14" font-family="Times,serif" font-size="14.00">create</text>
<text text-anchor="start" x="1145.35" y="-1249.14" font-family="Times,serif" font-size="14.00">destroy</text>
<text text-anchor="start" x="1145.35" y="-1234.14" font-family="Times,serif" font-size="14.00">edit</text>
<text text-anchor="start" x="1145.35" y="-1219.14" font-family="Times,serif" font-size="14.00">index</text>
<text text-anchor="start" x="1145.35" y="-1204.14" font-family="Times,serif" font-size="14.00">new</text>
<text text-anchor="start" x="1145.35" y="-1189.14" font-family="Times,serif" font-size="14.00">show</text>
<text text-anchor="start" x="1145.35" y="-1174.14" font-family="Times,serif" font-size="14.00">update</text>
<polyline fill="none" stroke="black" points="1137.35,-1166.34 1319.35,-1166.34 "/>
<polyline fill="none" stroke="black" points="1137.35,-1142.34 1319.35,-1142.34 "/>
<text text-anchor="start" x="1145.35" y="-1127.14" font-family="Times,serif" font-size="14.00">_layout</text>
<text text-anchor="start" x="1145.35" y="-1112.14" font-family="Times,serif" font-size="14.00">set_size</text>
<text text-anchor="start" x="1145.35" y="-1097.14" font-family="Times,serif" font-size="14.00">size_params</text>
</g>
<!-- ApplicationController -->
<g id="node7" class="node"><title>ApplicationController</title>
<path fill="none" stroke="black" d="M957.579,-818.507C957.579,-818.507 1105.58,-818.507 1105.58,-818.507 1111.58,-818.507 1117.58,-824.507 1117.58,-830.507 1117.58,-830.507 1117.58,-900.507 1117.58,-900.507 1117.58,-906.507 1111.58,-912.507 1105.58,-912.507 1105.58,-912.507 957.579,-912.507 957.579,-912.507 951.579,-912.507 945.579,-906.507 945.579,-900.507 945.579,-900.507 945.579,-830.507 945.579,-830.507 945.579,-824.507 951.579,-818.507 957.579,-818.507"/>
<text text-anchor="middle" x="1031.58" y="-897.307" font-family="Times,serif" font-size="14.00">ApplicationController</text>
<polyline fill="none" stroke="black" points="945.579,-889.507 1117.58,-889.507 "/>
<polyline fill="none" stroke="black" points="945.579,-865.507 1117.58,-865.507 "/>
<polyline fill="none" stroke="black" points="945.579,-841.507 1117.58,-841.507 "/>
<text text-anchor="start" x="953.579" y="-826.307" font-family="Times,serif" font-size="14.00">_layout</text>
</g>
<!-- ApplicationController&#45;&gt;Admin::BooksController -->
<g id="edge1" class="edge"><title>ApplicationController&#45;&gt;Admin::BooksController</title>
<path fill="none" stroke="black" d="M951.972,-818.482C910.356,-794.462 858.305,-765.289 810.729,-741.138 743.68,-707.101 666.337,-672.065 607.23,-646.146"/>
</g>
<!-- ApplicationController&#45;&gt;Admin::CategoriesController -->
<g id="edge2" class="edge"><title>ApplicationController&#45;&gt;Admin::CategoriesController</title>
<path fill="none" stroke="black" d="M1117.95,-867.465C1152.1,-868.24 1191.79,-869.14 1228.11,-869.963"/>
</g>
<!-- ApplicationController&#45;&gt;Admin::DashboardController -->
<g id="edge3" class="edge"><title>ApplicationController&#45;&gt;Admin::DashboardController</title>
<path fill="none" stroke="black" d="M1037.11,-818.28C1051.36,-696.509 1089.23,-372.962 1103.41,-251.808"/>
</g>
<!-- ApplicationController&#45;&gt;Admin::ProductsController -->
<g id="edge4" class="edge"><title>ApplicationController&#45;&gt;Admin::ProductsController</title>
<path fill="none" stroke="black" d="M1005.18,-912.801C982.185,-954.005 947.896,-1015.44 917.782,-1069.39"/>
</g>
<!-- ApplicationController&#45;&gt;Admin::SizesController -->
<g id="edge5" class="edge"><title>ApplicationController&#45;&gt;Admin::SizesController</title>
<path fill="none" stroke="black" d="M1059.77,-912.836C1087.08,-958.685 1129.45,-1029.81 1164.88,-1089.29"/>
</g>
<!-- BooksController -->
<g id="node8" class="node"><title>BooksController</title>
<path fill="none" stroke="black" d="M598.655,-128.5C598.655,-128.5 708.655,-128.5 708.655,-128.5 714.655,-128.5 720.655,-134.5 720.655,-140.5 720.655,-140.5 720.655,-299.5 720.655,-299.5 720.655,-305.5 714.655,-311.5 708.655,-311.5 708.655,-311.5 598.655,-311.5 598.655,-311.5 592.655,-311.5 586.655,-305.5 586.655,-299.5 586.655,-299.5 586.655,-140.5 586.655,-140.5 586.655,-134.5 592.655,-128.5 598.655,-128.5"/>
<text text-anchor="middle" x="653.655" y="-296.3" font-family="Times,serif" font-size="14.00">BooksController</text>
<polyline fill="none" stroke="black" points="586.655,-288.5 720.655,-288.5 "/>
<text text-anchor="start" x="594.655" y="-273.3" font-family="Times,serif" font-size="14.00">create</text>
<text text-anchor="start" x="594.655" y="-258.3" font-family="Times,serif" font-size="14.00">new</text>
<text text-anchor="start" x="594.655" y="-243.3" font-family="Times,serif" font-size="14.00">show</text>
<polyline fill="none" stroke="black" points="586.655,-235.5 720.655,-235.5 "/>
<polyline fill="none" stroke="black" points="586.655,-211.5 720.655,-211.5 "/>
<text text-anchor="start" x="594.655" y="-196.3" font-family="Times,serif" font-size="14.00">_layout</text>
<text text-anchor="start" x="594.655" y="-181.3" font-family="Times,serif" font-size="14.00">book_params</text>
<text text-anchor="start" x="594.655" y="-166.3" font-family="Times,serif" font-size="14.00">filter_params</text>
<text text-anchor="start" x="594.655" y="-151.3" font-family="Times,serif" font-size="14.00">invalid_book</text>
<text text-anchor="start" x="594.655" y="-136.3" font-family="Times,serif" font-size="14.00">set_book</text>
</g>
<!-- ApplicationController&#45;&gt;BooksController -->
<g id="edge6" class="edge"><title>ApplicationController&#45;&gt;BooksController</title>
<path fill="none" stroke="black" d="M984.178,-818.107C933.29,-765.198 852.636,-675.25 799.663,-586.098 747.407,-498.153 706.39,-388.072 681.307,-311.701"/>
</g>
<!-- BuildingsController -->
<g id="node9" class="node"><title>BuildingsController</title>
<path fill="none" stroke="black" d="M1591.09,-553.575C1591.09,-553.575 1725.09,-553.575 1725.09,-553.575 1731.09,-553.575 1737.09,-559.575 1737.09,-565.575 1737.09,-565.575 1737.09,-754.575 1737.09,-754.575 1737.09,-760.575 1731.09,-766.575 1725.09,-766.575 1725.09,-766.575 1591.09,-766.575 1591.09,-766.575 1585.09,-766.575 1579.09,-760.575 1579.09,-754.575 1579.09,-754.575 1579.09,-565.575 1579.09,-565.575 1579.09,-559.575 1585.09,-553.575 1591.09,-553.575"/>
<text text-anchor="middle" x="1658.09" y="-751.375" font-family="Times,serif" font-size="14.00">BuildingsController</text>
<polyline fill="none" stroke="black" points="1579.09,-743.575 1737.09,-743.575 "/>
<text text-anchor="start" x="1587.09" y="-728.375" font-family="Times,serif" font-size="14.00">create</text>
<text text-anchor="start" x="1587.09" y="-713.375" font-family="Times,serif" font-size="14.00">destroy</text>
<text text-anchor="start" x="1587.09" y="-698.375" font-family="Times,serif" font-size="14.00">edit</text>
<text text-anchor="start" x="1587.09" y="-683.375" font-family="Times,serif" font-size="14.00">index</text>
<text text-anchor="start" x="1587.09" y="-668.375" font-family="Times,serif" font-size="14.00">new</text>
<text text-anchor="start" x="1587.09" y="-653.375" font-family="Times,serif" font-size="14.00">show</text>
<text text-anchor="start" x="1587.09" y="-638.375" font-family="Times,serif" font-size="14.00">update</text>
<polyline fill="none" stroke="black" points="1579.09,-630.575 1737.09,-630.575 "/>
<polyline fill="none" stroke="black" points="1579.09,-606.575 1737.09,-606.575 "/>
<text text-anchor="start" x="1587.09" y="-591.375" font-family="Times,serif" font-size="14.00">_layout</text>
<text text-anchor="start" x="1587.09" y="-576.375" font-family="Times,serif" font-size="14.00">building_params</text>
<text text-anchor="start" x="1587.09" y="-561.375" font-family="Times,serif" font-size="14.00">set_building</text>
</g>
<!-- ApplicationController&#45;&gt;BuildingsController -->
<g id="edge7" class="edge"><title>ApplicationController&#45;&gt;BuildingsController</title>
<path fill="none" stroke="black" d="M1109.43,-818.313C1143.89,-798.976 1185.5,-777.691 1224.99,-762.804 1344.66,-717.688 1490.61,-687.97 1578.85,-672.598"/>
</g>
<!-- CategoriesController -->
<g id="node10" class="node"><title>CategoriesController</title>
<path fill="none" stroke="black" d="M814.863,-488.898C814.863,-488.898 958.863,-488.898 958.863,-488.898 964.863,-488.898 970.863,-494.898 970.863,-500.898 970.863,-500.898 970.863,-570.898 970.863,-570.898 970.863,-576.898 964.863,-582.898 958.863,-582.898 958.863,-582.898 814.863,-582.898 814.863,-582.898 808.863,-582.898 802.863,-576.898 802.863,-570.898 802.863,-570.898 802.863,-500.898 802.863,-500.898 802.863,-494.898 808.863,-488.898 814.863,-488.898"/>
<text text-anchor="middle" x="886.863" y="-567.698" font-family="Times,serif" font-size="14.00">CategoriesController</text>
<polyline fill="none" stroke="black" points="802.863,-559.898 970.863,-559.898 "/>
<polyline fill="none" stroke="black" points="802.863,-535.898 970.863,-535.898 "/>
<polyline fill="none" stroke="black" points="802.863,-511.898 970.863,-511.898 "/>
<text text-anchor="start" x="810.863" y="-496.698" font-family="Times,serif" font-size="14.00">_layout</text>
</g>
<!-- ApplicationController&#45;&gt;CategoriesController -->
<g id="edge8" class="edge"><title>ApplicationController&#45;&gt;CategoriesController</title>
<path fill="none" stroke="black" d="M1010.84,-818.282C983.334,-755.623 935.05,-645.65 907.558,-583.035"/>
</g>
<!-- CitiesController -->
<g id="node11" class="node"><title>CitiesController</title>
<path fill="none" stroke="black" d="M1543.37,-134.32C1543.37,-134.32 1651.37,-134.32 1651.37,-134.32 1657.37,-134.32 1663.37,-140.32 1663.37,-146.32 1663.37,-146.32 1663.37,-335.32 1663.37,-335.32 1663.37,-341.32 1657.37,-347.32 1651.37,-347.32 1651.37,-347.32 1543.37,-347.32 1543.37,-347.32 1537.37,-347.32 1531.37,-341.32 1531.37,-335.32 1531.37,-335.32 1531.37,-146.32 1531.37,-146.32 1531.37,-140.32 1537.37,-134.32 1543.37,-134.32"/>
<text text-anchor="middle" x="1597.37" y="-332.12" font-family="Times,serif" font-size="14.00">CitiesController</text>
<polyline fill="none" stroke="black" points="1531.37,-324.32 1663.37,-324.32 "/>
<text text-anchor="start" x="1539.37" y="-309.12" font-family="Times,serif" font-size="14.00">create</text>
<text text-anchor="start" x="1539.37" y="-294.12" font-family="Times,serif" font-size="14.00">destroy</text>
<text text-anchor="start" x="1539.37" y="-279.12" font-family="Times,serif" font-size="14.00">edit</text>
<text text-anchor="start" x="1539.37" y="-264.12" font-family="Times,serif" font-size="14.00">index</text>
<text text-anchor="start" x="1539.37" y="-249.12" font-family="Times,serif" font-size="14.00">new</text>
<text text-anchor="start" x="1539.37" y="-234.12" font-family="Times,serif" font-size="14.00">show</text>
<text text-anchor="start" x="1539.37" y="-219.12" font-family="Times,serif" font-size="14.00">update</text>
<polyline fill="none" stroke="black" points="1531.37,-211.32 1663.37,-211.32 "/>
<polyline fill="none" stroke="black" points="1531.37,-187.32 1663.37,-187.32 "/>
<text text-anchor="start" x="1539.37" y="-172.12" font-family="Times,serif" font-size="14.00">_layout</text>
<text text-anchor="start" x="1539.37" y="-157.12" font-family="Times,serif" font-size="14.00">city_params</text>
<text text-anchor="start" x="1539.37" y="-142.12" font-family="Times,serif" font-size="14.00">set_city</text>
</g>
<!-- ApplicationController&#45;&gt;CitiesController -->
<g id="edge9" class="edge"><title>ApplicationController&#45;&gt;CitiesController</title>
<path fill="none" stroke="black" d="M1117.82,-818.641C1184.8,-779.336 1277.17,-718.5 1343.66,-648.547 1429.38,-558.351 1501.38,-434.739 1546.53,-347.332"/>
</g>
<!-- CountriesController -->
<g id="node12" class="node"><title>CountriesController</title>
<path fill="none" stroke="black" d="M1191.46,-432.347C1191.46,-432.347 1328.46,-432.347 1328.46,-432.347 1334.46,-432.347 1340.46,-438.347 1340.46,-444.347 1340.46,-444.347 1340.46,-633.347 1340.46,-633.347 1340.46,-639.347 1334.46,-645.347 1328.46,-645.347 1328.46,-645.347 1191.46,-645.347 1191.46,-645.347 1185.46,-645.347 1179.46,-639.347 1179.46,-633.347 1179.46,-633.347 1179.46,-444.347 1179.46,-444.347 1179.46,-438.347 1185.46,-432.347 1191.46,-432.347"/>
<text text-anchor="middle" x="1259.96" y="-630.147" font-family="Times,serif" font-size="14.00">CountriesController</text>
<polyline fill="none" stroke="black" points="1179.46,-622.347 1340.46,-622.347 "/>
<text text-anchor="start" x="1187.46" y="-607.147" font-family="Times,serif" font-size="14.00">create</text>
<text text-anchor="start" x="1187.46" y="-592.147" font-family="Times,serif" font-size="14.00">destroy</text>
<text text-anchor="start" x="1187.46" y="-577.147" font-family="Times,serif" font-size="14.00">edit</text>
<text text-anchor="start" x="1187.46" y="-562.147" font-family="Times,serif" font-size="14.00">index</text>
<text text-anchor="start" x="1187.46" y="-547.147" font-family="Times,serif" font-size="14.00">new</text>
<text text-anchor="start" x="1187.46" y="-532.147" font-family="Times,serif" font-size="14.00">show</text>
<text text-anchor="start" x="1187.46" y="-517.147" font-family="Times,serif" font-size="14.00">update</text>
<polyline fill="none" stroke="black" points="1179.46,-509.347 1340.46,-509.347 "/>
<polyline fill="none" stroke="black" points="1179.46,-485.347 1340.46,-485.347 "/>
<text text-anchor="start" x="1187.46" y="-470.147" font-family="Times,serif" font-size="14.00">_layout</text>
<text text-anchor="start" x="1187.46" y="-455.147" font-family="Times,serif" font-size="14.00">country_params</text>
<text text-anchor="start" x="1187.46" y="-440.147" font-family="Times,serif" font-size="14.00">set_country</text>
</g>
<!-- ApplicationController&#45;&gt;CountriesController -->
<g id="edge10" class="edge"><title>ApplicationController&#45;&gt;CountriesController</title>
<path fill="none" stroke="black" d="M1064.54,-818.357C1096.04,-773.302 1144.64,-703.794 1185.49,-645.366"/>
</g>
<!-- CoversController -->
<g id="node13" class="node"><title>CoversController</title>
<path fill="none" stroke="black" d="M679.529,-744.338C679.529,-744.338 795.529,-744.338 795.529,-744.338 801.529,-744.338 807.529,-750.338 807.529,-756.338 807.529,-756.338 807.529,-945.338 807.529,-945.338 807.529,-951.338 801.529,-957.338 795.529,-957.338 795.529,-957.338 679.529,-957.338 679.529,-957.338 673.529,-957.338 667.529,-951.338 667.529,-945.338 667.529,-945.338 667.529,-756.338 667.529,-756.338 667.529,-750.338 673.529,-744.338 679.529,-744.338"/>
<text text-anchor="middle" x="737.529" y="-942.138" font-family="Times,serif" font-size="14.00">CoversController</text>
<polyline fill="none" stroke="black" points="667.529,-934.338 807.529,-934.338 "/>
<text text-anchor="start" x="675.529" y="-919.138" font-family="Times,serif" font-size="14.00">create</text>
<text text-anchor="start" x="675.529" y="-904.138" font-family="Times,serif" font-size="14.00">destroy</text>
<text text-anchor="start" x="675.529" y="-889.138" font-family="Times,serif" font-size="14.00">edit</text>
<text text-anchor="start" x="675.529" y="-874.138" font-family="Times,serif" font-size="14.00">index</text>
<text text-anchor="start" x="675.529" y="-859.138" font-family="Times,serif" font-size="14.00">new</text>
<text text-anchor="start" x="675.529" y="-844.138" font-family="Times,serif" font-size="14.00">show</text>
<text text-anchor="start" x="675.529" y="-829.138" font-family="Times,serif" font-size="14.00">update</text>
<polyline fill="none" stroke="black" points="667.529,-821.338 807.529,-821.338 "/>
<polyline fill="none" stroke="black" points="667.529,-797.338 807.529,-797.338 "/>
<text text-anchor="start" x="675.529" y="-782.138" font-family="Times,serif" font-size="14.00">_layout</text>
<text text-anchor="start" x="675.529" y="-767.138" font-family="Times,serif" font-size="14.00">cover_params</text>
<text text-anchor="start" x="675.529" y="-752.138" font-family="Times,serif" font-size="14.00">set_cover</text>
</g>
<!-- ApplicationController&#45;&gt;CoversController -->
<g id="edge11" class="edge"><title>ApplicationController&#45;&gt;CoversController</title>
<path fill="none" stroke="black" d="M945.341,-861.205C901.62,-859.024 849.193,-856.409 807.937,-854.351"/>
</g>
<!-- LocationsController -->
<g id="node14" class="node"><title>LocationsController</title>
<path fill="none" stroke="black" d="M1578.79,-980.393C1578.79,-980.393 1714.79,-980.393 1714.79,-980.393 1720.79,-980.393 1726.79,-986.393 1726.79,-992.393 1726.79,-992.393 1726.79,-1181.39 1726.79,-1181.39 1726.79,-1187.39 1720.79,-1193.39 1714.79,-1193.39 1714.79,-1193.39 1578.79,-1193.39 1578.79,-1193.39 1572.79,-1193.39 1566.79,-1187.39 1566.79,-1181.39 1566.79,-1181.39 1566.79,-992.393 1566.79,-992.393 1566.79,-986.393 1572.79,-980.393 1578.79,-980.393"/>
<text text-anchor="middle" x="1646.79" y="-1178.19" font-family="Times,serif" font-size="14.00">LocationsController</text>
<polyline fill="none" stroke="black" points="1566.79,-1170.39 1726.79,-1170.39 "/>
<text text-anchor="start" x="1574.79" y="-1155.19" font-family="Times,serif" font-size="14.00">create</text>
<text text-anchor="start" x="1574.79" y="-1140.19" font-family="Times,serif" font-size="14.00">destroy</text>
<text text-anchor="start" x="1574.79" y="-1125.19" font-family="Times,serif" font-size="14.00">edit</text>
<text text-anchor="start" x="1574.79" y="-1110.19" font-family="Times,serif" font-size="14.00">index</text>
<text text-anchor="start" x="1574.79" y="-1095.19" font-family="Times,serif" font-size="14.00">new</text>
<text text-anchor="start" x="1574.79" y="-1080.19" font-family="Times,serif" font-size="14.00">show</text>
<text text-anchor="start" x="1574.79" y="-1065.19" font-family="Times,serif" font-size="14.00">update</text>
<polyline fill="none" stroke="black" points="1566.79,-1057.39 1726.79,-1057.39 "/>
<polyline fill="none" stroke="black" points="1566.79,-1033.39 1726.79,-1033.39 "/>
<text text-anchor="start" x="1574.79" y="-1018.19" font-family="Times,serif" font-size="14.00">_layout</text>
<text text-anchor="start" x="1574.79" y="-1003.19" font-family="Times,serif" font-size="14.00">location_params</text>
<text text-anchor="start" x="1574.79" y="-988.193" font-family="Times,serif" font-size="14.00">set_location</text>
</g>
<!-- ApplicationController&#45;&gt;LocationsController -->
<g id="edge12" class="edge"><title>ApplicationController&#45;&gt;LocationsController</title>
<path fill="none" stroke="black" d="M1098.31,-912.602C1134.42,-936.291 1180.61,-963.803 1224.99,-982.204 1339.11,-1029.53 1479.82,-1059.15 1566.41,-1074.34"/>
</g>
<!-- ProductsController -->
<g id="node15" class="node"><title>ProductsController</title>
<path fill="none" stroke="black" d="M1568.74,-1445.96C1568.74,-1445.96 1699.74,-1445.96 1699.74,-1445.96 1705.74,-1445.96 1711.74,-1451.96 1711.74,-1457.96 1711.74,-1457.96 1711.74,-1556.96 1711.74,-1556.96 1711.74,-1562.96 1705.74,-1568.96 1699.74,-1568.96 1699.74,-1568.96 1568.74,-1568.96 1568.74,-1568.96 1562.74,-1568.96 1556.74,-1562.96 1556.74,-1556.96 1556.74,-1556.96 1556.74,-1457.96 1556.74,-1457.96 1556.74,-1451.96 1562.74,-1445.96 1568.74,-1445.96"/>
<text text-anchor="middle" x="1634.24" y="-1553.76" font-family="Times,serif" font-size="14.00">ProductsController</text>
<polyline fill="none" stroke="black" points="1556.74,-1545.96 1711.74,-1545.96 "/>
<text text-anchor="start" x="1564.74" y="-1530.76" font-family="Times,serif" font-size="14.00">show</text>
<polyline fill="none" stroke="black" points="1556.74,-1522.96 1711.74,-1522.96 "/>
<polyline fill="none" stroke="black" points="1556.74,-1498.96 1711.74,-1498.96 "/>
<text text-anchor="start" x="1564.74" y="-1483.76" font-family="Times,serif" font-size="14.00">_layout</text>
<text text-anchor="start" x="1564.74" y="-1468.76" font-family="Times,serif" font-size="14.00">set_categories</text>
<text text-anchor="start" x="1564.74" y="-1453.76" font-family="Times,serif" font-size="14.00">set_product</text>
</g>
<!-- ApplicationController&#45;&gt;ProductsController -->
<g id="edge13" class="edge"><title>ApplicationController&#45;&gt;ProductsController</title>
<path fill="none" stroke="black" d="M1105.24,-912.667C1167.01,-954.166 1255.6,-1018.39 1322.55,-1086.14 1436.23,-1201.18 1542.31,-1359.58 1596.54,-1445.68"/>
</g>
<!-- StoreController -->
<g id="node16" class="node"><title>StoreController</title>
<path fill="none" stroke="black" d="M1195.73,-1502.31C1195.73,-1502.31 1299.73,-1502.31 1299.73,-1502.31 1305.73,-1502.31 1311.73,-1508.31 1311.73,-1514.31 1311.73,-1514.31 1311.73,-1583.31 1311.73,-1583.31 1311.73,-1589.31 1305.73,-1595.31 1299.73,-1595.31 1299.73,-1595.31 1195.73,-1595.31 1195.73,-1595.31 1189.73,-1595.31 1183.73,-1589.31 1183.73,-1583.31 1183.73,-1583.31 1183.73,-1514.31 1183.73,-1514.31 1183.73,-1508.31 1189.73,-1502.31 1195.73,-1502.31"/>
<text text-anchor="middle" x="1247.73" y="-1580.11" font-family="Times,serif" font-size="14.00">StoreController</text>
<polyline fill="none" stroke="black" points="1183.73,-1572.31 1311.73,-1572.31 "/>
<text text-anchor="start" x="1191.73" y="-1557.11" font-family="Times,serif" font-size="14.00">index</text>
<polyline fill="none" stroke="black" points="1183.73,-1549.31 1311.73,-1549.31 "/>
<polyline fill="none" stroke="black" points="1183.73,-1525.31 1311.73,-1525.31 "/>
<text text-anchor="start" x="1191.73" y="-1510.11" font-family="Times,serif" font-size="14.00">_layout</text>
</g>
<!-- ApplicationController&#45;&gt;StoreController -->
<g id="edge14" class="edge"><title>ApplicationController&#45;&gt;StoreController</title>
<path fill="none" stroke="black" d="M1039.24,-912.654C1053.23,-994.185 1085.96,-1166.17 1134.15,-1305.54 1158.6,-1376.24 1197.04,-1453.91 1222.31,-1502.02"/>
</g>
<!-- DeviseController -->
<g id="node17" class="node"><title>DeviseController</title>
<path fill="none" stroke="black" d="M392.928,-875.525C392.928,-875.525 610.928,-875.525 610.928,-875.525 616.928,-875.525 622.928,-881.525 622.928,-887.525 622.928,-887.525 622.928,-1255.52 622.928,-1255.52 622.928,-1261.52 616.928,-1267.52 610.928,-1267.52 610.928,-1267.52 392.928,-1267.52 392.928,-1267.52 386.928,-1267.52 380.928,-1261.52 380.928,-1255.52 380.928,-1255.52 380.928,-887.525 380.928,-887.525 380.928,-881.525 386.928,-875.525 392.928,-875.525"/>
<text text-anchor="middle" x="501.928" y="-1252.32" font-family="Times,serif" font-size="14.00">DeviseController</text>
<polyline fill="none" stroke="black" points="380.928,-1244.52 622.928,-1244.52 "/>
<text text-anchor="start" x="388.928" y="-1229.32" font-family="Times,serif" font-size="14.00">_prefixes</text>
<polyline fill="none" stroke="black" points="380.928,-1221.52 622.928,-1221.52 "/>
<text text-anchor="start" x="388.928" y="-1206.32" font-family="Times,serif" font-size="14.00">assert_is_devise_resource!</text>
<text text-anchor="start" x="388.928" y="-1191.32" font-family="Times,serif" font-size="14.00">clean_up_passwords</text>
<text text-anchor="start" x="388.928" y="-1176.32" font-family="Times,serif" font-size="14.00">devise_i18n_options</text>
<text text-anchor="start" x="388.928" y="-1161.32" font-family="Times,serif" font-size="14.00">devise_mapping</text>
<text text-anchor="start" x="388.928" y="-1146.32" font-family="Times,serif" font-size="14.00">find_message</text>
<text text-anchor="start" x="388.928" y="-1131.32" font-family="Times,serif" font-size="14.00">navigational_formats</text>
<text text-anchor="start" x="388.928" y="-1116.32" font-family="Times,serif" font-size="14.00">require_no_authentication</text>
<text text-anchor="start" x="388.928" y="-1101.32" font-family="Times,serif" font-size="14.00">resource</text>
<text text-anchor="start" x="388.928" y="-1086.32" font-family="Times,serif" font-size="14.00">resource=</text>
<text text-anchor="start" x="388.928" y="-1071.32" font-family="Times,serif" font-size="14.00">resource_class</text>
<text text-anchor="start" x="388.928" y="-1056.32" font-family="Times,serif" font-size="14.00">resource_name</text>
<text text-anchor="start" x="388.928" y="-1041.32" font-family="Times,serif" font-size="14.00">resource_params</text>
<text text-anchor="start" x="388.928" y="-1026.32" font-family="Times,serif" font-size="14.00">respond_with_navigational</text>
<text text-anchor="start" x="388.928" y="-1011.32" font-family="Times,serif" font-size="14.00">scope_name</text>
<text text-anchor="start" x="388.928" y="-996.325" font-family="Times,serif" font-size="14.00">set_flash_message</text>
<text text-anchor="start" x="388.928" y="-981.325" font-family="Times,serif" font-size="14.00">set_flash_message!</text>
<text text-anchor="start" x="388.928" y="-966.325" font-family="Times,serif" font-size="14.00">set_minimum_password_length</text>
<text text-anchor="start" x="388.928" y="-951.325" font-family="Times,serif" font-size="14.00">signed_in_resource</text>
<text text-anchor="start" x="388.928" y="-936.325" font-family="Times,serif" font-size="14.00">successfully_sent?</text>
<text text-anchor="start" x="388.928" y="-921.325" font-family="Times,serif" font-size="14.00">translation_scope</text>
<text text-anchor="start" x="388.928" y="-906.325" font-family="Times,serif" font-size="14.00">unknown_action!</text>
<polyline fill="none" stroke="black" points="380.928,-898.525 622.928,-898.525 "/>
<text text-anchor="start" x="388.928" y="-883.325" font-family="Times,serif" font-size="14.00">_layout</text>
</g>
<!-- ApplicationController&#45;&gt;DeviseController -->
<g id="edge15" class="edge"><title>ApplicationController&#45;&gt;DeviseController</title>
<path fill="none" stroke="black" d="M945.557,-903.976C904.913,-921.777 855.578,-942.849 810.729,-960.538 749.387,-984.733 680.386,-1009.74 623.192,-1029.88"/>
</g>
<!-- Devise::ConfirmationsController -->
<g id="node18" class="node"><title>Devise::ConfirmationsController</title>
<path fill="none" stroke="black" d="M12,-180.668C12,-180.668 377,-180.668 377,-180.668 383,-180.668 389,-186.668 389,-192.668 389,-192.668 389,-320.668 389,-320.668 389,-326.668 383,-332.668 377,-332.668 377,-332.668 12,-332.668 12,-332.668 6,-332.668 -1.13687e-13,-326.668 -1.13687e-13,-320.668 -1.13687e-13,-320.668 -1.13687e-13,-192.668 -1.13687e-13,-192.668 -1.13687e-13,-186.668 6,-180.668 12,-180.668"/>
<text text-anchor="middle" x="194.5" y="-317.468" font-family="Times,serif" font-size="14.00">Devise::ConfirmationsController</text>
<polyline fill="none" stroke="black" points="-1.13687e-13,-309.668 389,-309.668 "/>
<text text-anchor="start" x="8" y="-294.468" font-family="Times,serif" font-size="14.00">create</text>
<text text-anchor="start" x="8" y="-279.468" font-family="Times,serif" font-size="14.00">new</text>
<text text-anchor="start" x="8" y="-264.468" font-family="Times,serif" font-size="14.00">show</text>
<polyline fill="none" stroke="black" points="-1.13687e-13,-256.668 389,-256.668 "/>
<text text-anchor="start" x="8" y="-241.468" font-family="Times,serif" font-size="14.00">after_confirmation_path_for</text>
<text text-anchor="start" x="8" y="-226.468" font-family="Times,serif" font-size="14.00">after_resending_confirmation_instructions_path_for</text>
<text text-anchor="start" x="8" y="-211.468" font-family="Times,serif" font-size="14.00">translation_scope</text>
<polyline fill="none" stroke="black" points="-1.13687e-13,-203.668 389,-203.668 "/>
<text text-anchor="start" x="8" y="-188.468" font-family="Times,serif" font-size="14.00">_layout</text>
</g>
<!-- DeviseController&#45;&gt;Devise::ConfirmationsController -->
<g id="edge16" class="edge"><title>DeviseController&#45;&gt;Devise::ConfirmationsController</title>
<path fill="none" stroke="black" d="M427.9,-875.309C362.162,-701.066 269.547,-455.584 223.231,-332.821"/>
</g>
<!-- Devise::UnlocksController -->
<g id="node19" class="node"><title>Devise::UnlocksController</title>
<path fill="none" stroke="black" d="M20.7874,-1441.2C20.7874,-1441.2 328.787,-1441.2 328.787,-1441.2 334.787,-1441.2 340.787,-1447.2 340.787,-1453.2 340.787,-1453.2 340.787,-1581.2 340.787,-1581.2 340.787,-1587.2 334.787,-1593.2 328.787,-1593.2 328.787,-1593.2 20.7874,-1593.2 20.7874,-1593.2 14.7874,-1593.2 8.78742,-1587.2 8.78742,-1581.2 8.78742,-1581.2 8.78742,-1453.2 8.78742,-1453.2 8.78742,-1447.2 14.7874,-1441.2 20.7874,-1441.2"/>
<text text-anchor="middle" x="174.787" y="-1578" font-family="Times,serif" font-size="14.00">Devise::UnlocksController</text>
<polyline fill="none" stroke="black" points="8.78742,-1570.2 340.787,-1570.2 "/>
<text text-anchor="start" x="16.7874" y="-1555" font-family="Times,serif" font-size="14.00">create</text>
<text text-anchor="start" x="16.7874" y="-1540" font-family="Times,serif" font-size="14.00">new</text>
<text text-anchor="start" x="16.7874" y="-1525" font-family="Times,serif" font-size="14.00">show</text>
<polyline fill="none" stroke="black" points="8.78742,-1517.2 340.787,-1517.2 "/>
<text text-anchor="start" x="16.7874" y="-1502" font-family="Times,serif" font-size="14.00">after_sending_unlock_instructions_path_for</text>
<text text-anchor="start" x="16.7874" y="-1487" font-family="Times,serif" font-size="14.00">after_unlock_path_for</text>
<text text-anchor="start" x="16.7874" y="-1472" font-family="Times,serif" font-size="14.00">translation_scope</text>
<polyline fill="none" stroke="black" points="8.78742,-1464.2 340.787,-1464.2 "/>
<text text-anchor="start" x="16.7874" y="-1449" font-family="Times,serif" font-size="14.00">_layout</text>
</g>
<!-- DeviseController&#45;&gt;Devise::UnlocksController -->
<g id="edge17" class="edge"><title>DeviseController&#45;&gt;Devise::UnlocksController</title>
<path fill="none" stroke="black" d="M380.81,-1236.53C329.325,-1306.67 271.812,-1385.02 230.664,-1441.08"/>
</g>
<!-- Devise::OmniauthCallbacksController -->
<g id="node20" class="node"><title>Devise::OmniauthCallbacksController</title>
<path fill="none" stroke="black" d="M20.6902,-1024.39C20.6902,-1024.39 284.69,-1024.39 284.69,-1024.39 290.69,-1024.39 296.69,-1030.39 296.69,-1036.39 296.69,-1036.39 296.69,-1164.39 296.69,-1164.39 296.69,-1170.39 290.69,-1176.39 284.69,-1176.39 284.69,-1176.39 20.6902,-1176.39 20.6902,-1176.39 14.6902,-1176.39 8.69024,-1170.39 8.69024,-1164.39 8.69024,-1164.39 8.69024,-1036.39 8.69024,-1036.39 8.69024,-1030.39 14.6902,-1024.39 20.6902,-1024.39"/>
<text text-anchor="middle" x="152.69" y="-1161.19" font-family="Times,serif" font-size="14.00">Devise::OmniauthCallbacksController</text>
<polyline fill="none" stroke="black" points="8.69024,-1153.39 296.69,-1153.39 "/>
<text text-anchor="start" x="16.6902" y="-1138.19" font-family="Times,serif" font-size="14.00">failure</text>
<text text-anchor="start" x="16.6902" y="-1123.19" font-family="Times,serif" font-size="14.00">passthru</text>
<polyline fill="none" stroke="black" points="8.69024,-1115.39 296.69,-1115.39 "/>
<text text-anchor="start" x="16.6902" y="-1100.19" font-family="Times,serif" font-size="14.00">after_omniauth_failure_path_for</text>
<text text-anchor="start" x="16.6902" y="-1085.19" font-family="Times,serif" font-size="14.00">failed_strategy</text>
<text text-anchor="start" x="16.6902" y="-1070.19" font-family="Times,serif" font-size="14.00">failure_message</text>
<text text-anchor="start" x="16.6902" y="-1055.19" font-family="Times,serif" font-size="14.00">translation_scope</text>
<polyline fill="none" stroke="black" points="8.69024,-1047.39 296.69,-1047.39 "/>
<text text-anchor="start" x="16.6902" y="-1032.19" font-family="Times,serif" font-size="14.00">_layout</text>
</g>
<!-- DeviseController&#45;&gt;Devise::OmniauthCallbacksController -->
<g id="edge18" class="edge"><title>DeviseController&#45;&gt;Devise::OmniauthCallbacksController</title>
<path fill="none" stroke="black" d="M380.762,-1081.54C353.673,-1083.78 324.685,-1086.18 296.772,-1088.48"/>
</g>
<!-- Devise::PasswordsController -->
<g id="node21" class="node"><title>Devise::PasswordsController</title>
<path fill="none" stroke="black" d="M372.66,-1406.11C372.66,-1406.11 744.66,-1406.11 744.66,-1406.11 750.66,-1406.11 756.66,-1412.11 756.66,-1418.11 756.66,-1418.11 756.66,-1591.11 756.66,-1591.11 756.66,-1597.11 750.66,-1603.11 744.66,-1603.11 744.66,-1603.11 372.66,-1603.11 372.66,-1603.11 366.66,-1603.11 360.66,-1597.11 360.66,-1591.11 360.66,-1591.11 360.66,-1418.11 360.66,-1418.11 360.66,-1412.11 366.66,-1406.11 372.66,-1406.11"/>
<text text-anchor="middle" x="558.66" y="-1587.91" font-family="Times,serif" font-size="14.00">Devise::PasswordsController</text>
<polyline fill="none" stroke="black" points="360.66,-1580.11 756.66,-1580.11 "/>
<text text-anchor="start" x="368.66" y="-1564.91" font-family="Times,serif" font-size="14.00">create</text>
<text text-anchor="start" x="368.66" y="-1549.91" font-family="Times,serif" font-size="14.00">edit</text>
<text text-anchor="start" x="368.66" y="-1534.91" font-family="Times,serif" font-size="14.00">new</text>
<text text-anchor="start" x="368.66" y="-1519.91" font-family="Times,serif" font-size="14.00">update</text>
<polyline fill="none" stroke="black" points="360.66,-1512.11 756.66,-1512.11 "/>
<text text-anchor="start" x="368.66" y="-1496.91" font-family="Times,serif" font-size="14.00">after_resetting_password_path_for</text>
<text text-anchor="start" x="368.66" y="-1481.91" font-family="Times,serif" font-size="14.00">after_sending_reset_password_instructions_path_for</text>
<text text-anchor="start" x="368.66" y="-1466.91" font-family="Times,serif" font-size="14.00">assert_reset_token_passed</text>
<text text-anchor="start" x="368.66" y="-1451.91" font-family="Times,serif" font-size="14.00">translation_scope</text>
<text text-anchor="start" x="368.66" y="-1436.91" font-family="Times,serif" font-size="14.00">unlockable?</text>
<polyline fill="none" stroke="black" points="360.66,-1429.11 756.66,-1429.11 "/>
<text text-anchor="start" x="368.66" y="-1413.91" font-family="Times,serif" font-size="14.00">_layout</text>
</g>
<!-- DeviseController&#45;&gt;Devise::PasswordsController -->
<g id="edge19" class="edge"><title>DeviseController&#45;&gt;Devise::PasswordsController</title>
<path fill="none" stroke="black" d="M527.638,-1267.8C533.912,-1315.69 540.361,-1364.92 545.742,-1406"/>
</g>
<!-- Devise::RegistrationsController -->
<g id="node22" class="node"><title>Devise::RegistrationsController</title>
<path fill="none" stroke="black" d="M789.891,-1386.53C789.891,-1386.53 1011.89,-1386.53 1011.89,-1386.53 1017.89,-1386.53 1023.89,-1392.53 1023.89,-1398.53 1023.89,-1398.53 1023.89,-1691.53 1023.89,-1691.53 1023.89,-1697.53 1017.89,-1703.53 1011.89,-1703.53 1011.89,-1703.53 789.891,-1703.53 789.891,-1703.53 783.891,-1703.53 777.891,-1697.53 777.891,-1691.53 777.891,-1691.53 777.891,-1398.53 777.891,-1398.53 777.891,-1392.53 783.891,-1386.53 789.891,-1386.53"/>
<text text-anchor="middle" x="900.891" y="-1688.33" font-family="Times,serif" font-size="14.00">Devise::RegistrationsController</text>
<polyline fill="none" stroke="black" points="777.891,-1680.53 1023.89,-1680.53 "/>
<text text-anchor="start" x="785.891" y="-1665.33" font-family="Times,serif" font-size="14.00">cancel</text>
<text text-anchor="start" x="785.891" y="-1650.33" font-family="Times,serif" font-size="14.00">create</text>
<text text-anchor="start" x="785.891" y="-1635.33" font-family="Times,serif" font-size="14.00">destroy</text>
<text text-anchor="start" x="785.891" y="-1620.33" font-family="Times,serif" font-size="14.00">edit</text>
<text text-anchor="start" x="785.891" y="-1605.33" font-family="Times,serif" font-size="14.00">new</text>
<text text-anchor="start" x="785.891" y="-1590.33" font-family="Times,serif" font-size="14.00">update</text>
<polyline fill="none" stroke="black" points="777.891,-1582.53 1023.89,-1582.53 "/>
<text text-anchor="start" x="785.891" y="-1567.33" font-family="Times,serif" font-size="14.00">account_update_params</text>
<text text-anchor="start" x="785.891" y="-1552.33" font-family="Times,serif" font-size="14.00">after_inactive_sign_up_path_for</text>
<text text-anchor="start" x="785.891" y="-1537.33" font-family="Times,serif" font-size="14.00">after_sign_up_path_for</text>
<text text-anchor="start" x="785.891" y="-1522.33" font-family="Times,serif" font-size="14.00">after_update_path_for</text>
<text text-anchor="start" x="785.891" y="-1507.33" font-family="Times,serif" font-size="14.00">authenticate_scope!</text>
<text text-anchor="start" x="785.891" y="-1492.33" font-family="Times,serif" font-size="14.00">build_resource</text>
<text text-anchor="start" x="785.891" y="-1477.33" font-family="Times,serif" font-size="14.00">sign_up</text>
<text text-anchor="start" x="785.891" y="-1462.33" font-family="Times,serif" font-size="14.00">sign_up_params</text>
<text text-anchor="start" x="785.891" y="-1447.33" font-family="Times,serif" font-size="14.00">translation_scope</text>
<text text-anchor="start" x="785.891" y="-1432.33" font-family="Times,serif" font-size="14.00">update_needs_confirmation?</text>
<text text-anchor="start" x="785.891" y="-1417.33" font-family="Times,serif" font-size="14.00">update_resource</text>
<polyline fill="none" stroke="black" points="777.891,-1409.53 1023.89,-1409.53 "/>
<text text-anchor="start" x="785.891" y="-1394.33" font-family="Times,serif" font-size="14.00">_layout</text>
</g>
<!-- DeviseController&#45;&gt;Devise::RegistrationsController -->
<g id="edge20" class="edge"><title>DeviseController&#45;&gt;Devise::RegistrationsController</title>
<path fill="none" stroke="black" d="M622.984,-1215.2C671.939,-1273.3 728.39,-1340.3 777.572,-1398.67"/>
</g>
<!-- Devise::SessionsController -->
<g id="node23" class="node"><title>Devise::SessionsController</title>
<path fill="none" stroke="black" d="M64.7703,-591.045C64.7703,-591.045 249.77,-591.045 249.77,-591.045 255.77,-591.045 261.77,-597.045 261.77,-603.045 261.77,-603.045 261.77,-791.045 261.77,-791.045 261.77,-797.045 255.77,-803.045 249.77,-803.045 249.77,-803.045 64.7703,-803.045 64.7703,-803.045 58.7703,-803.045 52.7703,-797.045 52.7703,-791.045 52.7703,-791.045 52.7703,-603.045 52.7703,-603.045 52.7703,-597.045 58.7703,-591.045 64.7703,-591.045"/>
<text text-anchor="middle" x="157.27" y="-787.845" font-family="Times,serif" font-size="14.00">Devise::SessionsController</text>
<polyline fill="none" stroke="black" points="52.7703,-780.045 261.77,-780.045 "/>
<text text-anchor="start" x="60.7703" y="-764.845" font-family="Times,serif" font-size="14.00">create</text>
<text text-anchor="start" x="60.7703" y="-749.845" font-family="Times,serif" font-size="14.00">destroy</text>
<text text-anchor="start" x="60.7703" y="-734.845" font-family="Times,serif" font-size="14.00">new</text>
<polyline fill="none" stroke="black" points="52.7703,-727.045 261.77,-727.045 "/>
<text text-anchor="start" x="60.7703" y="-711.845" font-family="Times,serif" font-size="14.00">auth_options</text>
<text text-anchor="start" x="60.7703" y="-696.845" font-family="Times,serif" font-size="14.00">serialize_options</text>
<text text-anchor="start" x="60.7703" y="-681.845" font-family="Times,serif" font-size="14.00">sign_in_params</text>
<text text-anchor="start" x="60.7703" y="-666.845" font-family="Times,serif" font-size="14.00">translation_scope</text>
<polyline fill="none" stroke="black" points="52.7703,-659.045 261.77,-659.045 "/>
<text text-anchor="start" x="60.7703" y="-643.845" font-family="Times,serif" font-size="14.00">_layout</text>
<text text-anchor="start" x="60.7703" y="-628.845" font-family="Times,serif" font-size="14.00">all_signed_out?</text>
<text text-anchor="start" x="60.7703" y="-613.845" font-family="Times,serif" font-size="14.00">respond_to_on_destroy</text>
<text text-anchor="start" x="60.7703" y="-598.845" font-family="Times,serif" font-size="14.00">verify_signed_out_user</text>
</g>
<!-- DeviseController&#45;&gt;Devise::SessionsController -->
<g id="edge21" class="edge"><title>DeviseController&#45;&gt;Devise::SessionsController</title>
<path fill="none" stroke="black" d="M380.899,-940.024C339.682,-895.24 294.156,-845.775 254.999,-803.229"/>
</g>
</g>
</svg>
