<?xml version="1.0" encoding="UTF-8" standalone="no"?>
<!DOCTYPE svg PUBLIC "-//W3C//DTD SVG 1.1//EN"
 "http://www.w3.org/Graphics/SVG/1.1/DTD/svg11.dtd">
<!-- Generated by graphviz version 2.36.0 (20140111.2315)
 -->
<!-- Title: controllers_diagram Pages: 1 -->
<svg width="941pt" height="716pt"
 viewBox="0.00 0.00 941.00 716.03" xmlns="http://www.w3.org/2000/svg" xmlns:xlink="http://www.w3.org/1999/xlink">
<g id="graph0" class="graph" transform="scale(1 1) rotate(0) translate(4 712.025)">
<title>controllers_diagram</title>
<polygon fill="none" stroke="none" points="-4,4 -4,-712.025 937,-712.025 937,4 -4,4"/>
<!-- _diagram_info -->
<g id="node1" class="node"><title>_diagram_info</title>
<text text-anchor="start" x="684" y="-63.6" font-family="Times,serif" font-size="13.00">Controllers diagram</text>
<text text-anchor="start" x="684" y="-49.6" font-family="Times,serif" font-size="13.00">Date: May 12 2017 &#45; 22:09</text>
<text text-anchor="start" x="684" y="-35.6" font-family="Times,serif" font-size="13.00">Migration version: 20170510104527</text>
<text text-anchor="start" x="684" y="-21.6" font-family="Times,serif" font-size="13.00">Generated by RailRoady 1.5.2</text>
<text text-anchor="start" x="684" y="-7.6" font-family="Times,serif" font-size="13.00">http://railroady.prestonlee.com</text>
</g>
<!-- ApplicationController -->
<g id="node2" class="node"><title>ApplicationController</title>
<path fill="none" stroke="black" d="M215.538,-307.209C215.538,-307.209 363.538,-307.209 363.538,-307.209 369.538,-307.209 375.538,-313.209 375.538,-319.209 375.538,-319.209 375.538,-389.209 375.538,-389.209 375.538,-395.209 369.538,-401.209 363.538,-401.209 363.538,-401.209 215.538,-401.209 215.538,-401.209 209.538,-401.209 203.538,-395.209 203.538,-389.209 203.538,-389.209 203.538,-319.209 203.538,-319.209 203.538,-313.209 209.538,-307.209 215.538,-307.209"/>
<text text-anchor="middle" x="289.538" y="-386.009" font-family="Times,serif" font-size="14.00">ApplicationController</text>
<polyline fill="none" stroke="black" points="203.538,-378.209 375.538,-378.209 "/>
<polyline fill="none" stroke="black" points="203.538,-354.209 375.538,-354.209 "/>
<polyline fill="none" stroke="black" points="203.538,-330.209 375.538,-330.209 "/>
<text text-anchor="start" x="211.538" y="-315.009" font-family="Times,serif" font-size="14.00">_layout</text>
</g>
<!-- BuildingsController -->
<g id="node3" class="node"><title>BuildingsController</title>
<path fill="none" stroke="black" d="M431.655,-256.655C431.655,-256.655 565.655,-256.655 565.655,-256.655 571.655,-256.655 577.655,-262.655 577.655,-268.655 577.655,-268.655 577.655,-457.655 577.655,-457.655 577.655,-463.655 571.655,-469.655 565.655,-469.655 565.655,-469.655 431.655,-469.655 431.655,-469.655 425.655,-469.655 419.655,-463.655 419.655,-457.655 419.655,-457.655 419.655,-268.655 419.655,-268.655 419.655,-262.655 425.655,-256.655 431.655,-256.655"/>
<text text-anchor="middle" x="498.655" y="-454.455" font-family="Times,serif" font-size="14.00">BuildingsController</text>
<polyline fill="none" stroke="black" points="419.655,-446.655 577.655,-446.655 "/>
<text text-anchor="start" x="427.655" y="-431.455" font-family="Times,serif" font-size="14.00">create</text>
<text text-anchor="start" x="427.655" y="-416.455" font-family="Times,serif" font-size="14.00">destroy</text>
<text text-anchor="start" x="427.655" y="-401.455" font-family="Times,serif" font-size="14.00">edit</text>
<text text-anchor="start" x="427.655" y="-386.455" font-family="Times,serif" font-size="14.00">index</text>
<text text-anchor="start" x="427.655" y="-371.455" font-family="Times,serif" font-size="14.00">new</text>
<text text-anchor="start" x="427.655" y="-356.455" font-family="Times,serif" font-size="14.00">show</text>
<text text-anchor="start" x="427.655" y="-341.455" font-family="Times,serif" font-size="14.00">update</text>
<polyline fill="none" stroke="black" points="419.655,-333.655 577.655,-333.655 "/>
<polyline fill="none" stroke="black" points="419.655,-309.655 577.655,-309.655 "/>
<text text-anchor="start" x="427.655" y="-294.455" font-family="Times,serif" font-size="14.00">_layout</text>
<text text-anchor="start" x="427.655" y="-279.455" font-family="Times,serif" font-size="14.00">building_params</text>
<text text-anchor="start" x="427.655" y="-264.455" font-family="Times,serif" font-size="14.00">set_building</text>
</g>
<!-- ApplicationController&#45;&gt;BuildingsController -->
<g id="edge1" class="edge"><title>ApplicationController&#45;&gt;BuildingsController</title>
<path fill="none" stroke="black" d="M375.801,-357.899C390.315,-358.52 405.314,-359.162 419.632,-359.775"/>
</g>
<!-- CategoriesController -->
<g id="node4" class="node"><title>CategoriesController</title>
<path fill="none" stroke="black" d="M12,-0.5C12,-0.5 156,-0.5 156,-0.5 162,-0.5 168,-6.5 168,-12.5 168,-12.5 168,-201.5 168,-201.5 168,-207.5 162,-213.5 156,-213.5 156,-213.5 12,-213.5 12,-213.5 6,-213.5 0,-207.5 0,-201.5 0,-201.5 0,-12.5 0,-12.5 0,-6.5 6,-0.5 12,-0.5"/>
<text text-anchor="middle" x="84" y="-198.3" font-family="Times,serif" font-size="14.00">CategoriesController</text>
<polyline fill="none" stroke="black" points="0,-190.5 168,-190.5 "/>
<text text-anchor="start" x="8" y="-175.3" font-family="Times,serif" font-size="14.00">create</text>
<text text-anchor="start" x="8" y="-160.3" font-family="Times,serif" font-size="14.00">destroy</text>
<text text-anchor="start" x="8" y="-145.3" font-family="Times,serif" font-size="14.00">edit</text>
<text text-anchor="start" x="8" y="-130.3" font-family="Times,serif" font-size="14.00">index</text>
<text text-anchor="start" x="8" y="-115.3" font-family="Times,serif" font-size="14.00">new</text>
<text text-anchor="start" x="8" y="-100.3" font-family="Times,serif" font-size="14.00">show</text>
<text text-anchor="start" x="8" y="-85.3" font-family="Times,serif" font-size="14.00">update</text>
<polyline fill="none" stroke="black" points="0,-77.5 168,-77.5 "/>
<polyline fill="none" stroke="black" points="0,-53.5 168,-53.5 "/>
<text text-anchor="start" x="8" y="-38.3" font-family="Times,serif" font-size="14.00">_layout</text>
<text text-anchor="start" x="8" y="-23.3" font-family="Times,serif" font-size="14.00">category_params</text>
<text text-anchor="start" x="8" y="-8.3" font-family="Times,serif" font-size="14.00">set_category</text>
</g>
<!-- ApplicationController&#45;&gt;CategoriesController -->
<g id="edge2" class="edge"><title>ApplicationController&#45;&gt;CategoriesController</title>
<path fill="none" stroke="black" d="M250.394,-307.129C227.099,-279.111 196.614,-242.445 168.11,-208.162"/>
</g>
<!-- CitiesController -->
<g id="node5" class="node"><title>CitiesController</title>
<path fill="none" stroke="black" d="M23.4273,-484.946C23.4273,-484.946 131.427,-484.946 131.427,-484.946 137.427,-484.946 143.427,-490.946 143.427,-496.946 143.427,-496.946 143.427,-685.946 143.427,-685.946 143.427,-691.946 137.427,-697.946 131.427,-697.946 131.427,-697.946 23.4273,-697.946 23.4273,-697.946 17.4273,-697.946 11.4273,-691.946 11.4273,-685.946 11.4273,-685.946 11.4273,-496.946 11.4273,-496.946 11.4273,-490.946 17.4273,-484.946 23.4273,-484.946"/>
<text text-anchor="middle" x="77.4273" y="-682.746" font-family="Times,serif" font-size="14.00">CitiesController</text>
<polyline fill="none" stroke="black" points="11.4273,-674.946 143.427,-674.946 "/>
<text text-anchor="start" x="19.4273" y="-659.746" font-family="Times,serif" font-size="14.00">create</text>
<text text-anchor="start" x="19.4273" y="-644.746" font-family="Times,serif" font-size="14.00">destroy</text>
<text text-anchor="start" x="19.4273" y="-629.746" font-family="Times,serif" font-size="14.00">edit</text>
<text text-anchor="start" x="19.4273" y="-614.746" font-family="Times,serif" font-size="14.00">index</text>
<text text-anchor="start" x="19.4273" y="-599.746" font-family="Times,serif" font-size="14.00">new</text>
<text text-anchor="start" x="19.4273" y="-584.746" font-family="Times,serif" font-size="14.00">show</text>
<text text-anchor="start" x="19.4273" y="-569.746" font-family="Times,serif" font-size="14.00">update</text>
<polyline fill="none" stroke="black" points="11.4273,-561.946 143.427,-561.946 "/>
<polyline fill="none" stroke="black" points="11.4273,-537.946 143.427,-537.946 "/>
<text text-anchor="start" x="19.4273" y="-522.746" font-family="Times,serif" font-size="14.00">_layout</text>
<text text-anchor="start" x="19.4273" y="-507.746" font-family="Times,serif" font-size="14.00">city_params</text>
<text text-anchor="start" x="19.4273" y="-492.746" font-family="Times,serif" font-size="14.00">set_city</text>
</g>
<!-- ApplicationController&#45;&gt;CitiesController -->
<g id="edge3" class="edge"><title>ApplicationController&#45;&gt;CitiesController</title>
<path fill="none" stroke="black" d="M247.378,-401.363C217.778,-434.469 177.592,-479.416 143.728,-517.292"/>
</g>
<!-- CountriesController -->
<g id="node6" class="node"><title>CountriesController</title>
<path fill="none" stroke="black" d="M427.133,-494.525C427.133,-494.525 564.133,-494.525 564.133,-494.525 570.133,-494.525 576.133,-500.525 576.133,-506.525 576.133,-506.525 576.133,-695.525 576.133,-695.525 576.133,-701.525 570.133,-707.525 564.133,-707.525 564.133,-707.525 427.133,-707.525 427.133,-707.525 421.133,-707.525 415.133,-701.525 415.133,-695.525 415.133,-695.525 415.133,-506.525 415.133,-506.525 415.133,-500.525 421.133,-494.525 427.133,-494.525"/>
<text text-anchor="middle" x="495.633" y="-692.325" font-family="Times,serif" font-size="14.00">CountriesController</text>
<polyline fill="none" stroke="black" points="415.133,-684.525 576.133,-684.525 "/>
<text text-anchor="start" x="423.133" y="-669.325" font-family="Times,serif" font-size="14.00">create</text>
<text text-anchor="start" x="423.133" y="-654.325" font-family="Times,serif" font-size="14.00">destroy</text>
<text text-anchor="start" x="423.133" y="-639.325" font-family="Times,serif" font-size="14.00">edit</text>
<text text-anchor="start" x="423.133" y="-624.325" font-family="Times,serif" font-size="14.00">index</text>
<text text-anchor="start" x="423.133" y="-609.325" font-family="Times,serif" font-size="14.00">new</text>
<text text-anchor="start" x="423.133" y="-594.325" font-family="Times,serif" font-size="14.00">show</text>
<text text-anchor="start" x="423.133" y="-579.325" font-family="Times,serif" font-size="14.00">update</text>
<polyline fill="none" stroke="black" points="415.133,-571.525 576.133,-571.525 "/>
<polyline fill="none" stroke="black" points="415.133,-547.525 576.133,-547.525 "/>
<text text-anchor="start" x="423.133" y="-532.325" font-family="Times,serif" font-size="14.00">_layout</text>
<text text-anchor="start" x="423.133" y="-517.325" font-family="Times,serif" font-size="14.00">country_params</text>
<text text-anchor="start" x="423.133" y="-502.325" font-family="Times,serif" font-size="14.00">set_country</text>
</g>
<!-- ApplicationController&#45;&gt;CountriesController -->
<g id="edge4" class="edge"><title>ApplicationController&#45;&gt;CountriesController</title>
<path fill="none" stroke="black" d="M328.788,-401.214C353.139,-430.376 385.325,-468.923 414.928,-504.374"/>
</g>
<!-- CoversController -->
<g id="node7" class="node"><title>CoversController</title>
<path fill="none" stroke="black" d="M225.412,-490.708C225.412,-490.708 341.412,-490.708 341.412,-490.708 347.412,-490.708 353.412,-496.708 353.412,-502.708 353.412,-502.708 353.412,-691.708 353.412,-691.708 353.412,-697.708 347.412,-703.708 341.412,-703.708 341.412,-703.708 225.412,-703.708 225.412,-703.708 219.412,-703.708 213.412,-697.708 213.412,-691.708 213.412,-691.708 213.412,-502.708 213.412,-502.708 213.412,-496.708 219.412,-490.708 225.412,-490.708"/>
<text text-anchor="middle" x="283.412" y="-688.508" font-family="Times,serif" font-size="14.00">CoversController</text>
<polyline fill="none" stroke="black" points="213.412,-680.708 353.412,-680.708 "/>
<text text-anchor="start" x="221.412" y="-665.508" font-family="Times,serif" font-size="14.00">create</text>
<text text-anchor="start" x="221.412" y="-650.508" font-family="Times,serif" font-size="14.00">destroy</text>
<text text-anchor="start" x="221.412" y="-635.508" font-family="Times,serif" font-size="14.00">edit</text>
<text text-anchor="start" x="221.412" y="-620.508" font-family="Times,serif" font-size="14.00">index</text>
<text text-anchor="start" x="221.412" y="-605.508" font-family="Times,serif" font-size="14.00">new</text>
<text text-anchor="start" x="221.412" y="-590.508" font-family="Times,serif" font-size="14.00">show</text>
<text text-anchor="start" x="221.412" y="-575.508" font-family="Times,serif" font-size="14.00">update</text>
<polyline fill="none" stroke="black" points="213.412,-567.708 353.412,-567.708 "/>
<polyline fill="none" stroke="black" points="213.412,-543.708 353.412,-543.708 "/>
<text text-anchor="start" x="221.412" y="-528.508" font-family="Times,serif" font-size="14.00">_layout</text>
<text text-anchor="start" x="221.412" y="-513.508" font-family="Times,serif" font-size="14.00">cover_params</text>
<text text-anchor="start" x="221.412" y="-498.508" font-family="Times,serif" font-size="14.00">set_cover</text>
</g>
<!-- ApplicationController&#45;&gt;CoversController -->
<g id="edge5" class="edge"><title>ApplicationController&#45;&gt;CoversController</title>
<path fill="none" stroke="black" d="M288.35,-401.35C287.708,-426.814 286.887,-459.359 286.1,-490.575"/>
</g>
<!-- LocationsController -->
<g id="node8" class="node"><title>LocationsController</title>
<path fill="none" stroke="black" d="M12.6247,-238.274C12.6247,-238.274 148.625,-238.274 148.625,-238.274 154.625,-238.274 160.625,-244.274 160.625,-250.274 160.625,-250.274 160.625,-439.274 160.625,-439.274 160.625,-445.274 154.625,-451.274 148.625,-451.274 148.625,-451.274 12.6247,-451.274 12.6247,-451.274 6.62474,-451.274 0.624745,-445.274 0.624745,-439.274 0.624745,-439.274 0.624745,-250.274 0.624745,-250.274 0.624745,-244.274 6.62474,-238.274 12.6247,-238.274"/>
<text text-anchor="middle" x="80.6247" y="-436.074" font-family="Times,serif" font-size="14.00">LocationsController</text>
<polyline fill="none" stroke="black" points="0.624745,-428.274 160.625,-428.274 "/>
<text text-anchor="start" x="8.62474" y="-413.074" font-family="Times,serif" font-size="14.00">create</text>
<text text-anchor="start" x="8.62474" y="-398.074" font-family="Times,serif" font-size="14.00">destroy</text>
<text text-anchor="start" x="8.62474" y="-383.074" font-family="Times,serif" font-size="14.00">edit</text>
<text text-anchor="start" x="8.62474" y="-368.074" font-family="Times,serif" font-size="14.00">index</text>
<text text-anchor="start" x="8.62474" y="-353.074" font-family="Times,serif" font-size="14.00">new</text>
<text text-anchor="start" x="8.62474" y="-338.074" font-family="Times,serif" font-size="14.00">show</text>
<text text-anchor="start" x="8.62474" y="-323.074" font-family="Times,serif" font-size="14.00">update</text>
<polyline fill="none" stroke="black" points="0.624745,-315.274 160.625,-315.274 "/>
<polyline fill="none" stroke="black" points="0.624745,-291.274 160.625,-291.274 "/>
<text text-anchor="start" x="8.62474" y="-276.074" font-family="Times,serif" font-size="14.00">_layout</text>
<text text-anchor="start" x="8.62474" y="-261.074" font-family="Times,serif" font-size="14.00">location_params</text>
<text text-anchor="start" x="8.62474" y="-246.074" font-family="Times,serif" font-size="14.00">set_location</text>
</g>
<!-- ApplicationController&#45;&gt;LocationsController -->
<g id="edge6" class="edge"><title>ApplicationController&#45;&gt;LocationsController</title>
<path fill="none" stroke="black" d="M203.359,-350.317C189.309,-349.682 174.804,-349.027 160.904,-348.399"/>
</g>
<!-- ProductsController -->
<g id="node9" class="node"><title>ProductsController</title>
<path fill="none" stroke="black" d="M436.663,-10.1111C436.663,-10.1111 567.663,-10.1111 567.663,-10.1111 573.663,-10.1111 579.663,-16.1111 579.663,-22.1111 579.663,-22.1111 579.663,-211.111 579.663,-211.111 579.663,-217.111 573.663,-223.111 567.663,-223.111 567.663,-223.111 436.663,-223.111 436.663,-223.111 430.663,-223.111 424.663,-217.111 424.663,-211.111 424.663,-211.111 424.663,-22.1111 424.663,-22.1111 424.663,-16.1111 430.663,-10.1111 436.663,-10.1111"/>
<text text-anchor="middle" x="502.163" y="-207.911" font-family="Times,serif" font-size="14.00">ProductsController</text>
<polyline fill="none" stroke="black" points="424.663,-200.111 579.663,-200.111 "/>
<text text-anchor="start" x="432.663" y="-184.911" font-family="Times,serif" font-size="14.00">create</text>
<text text-anchor="start" x="432.663" y="-169.911" font-family="Times,serif" font-size="14.00">destroy</text>
<text text-anchor="start" x="432.663" y="-154.911" font-family="Times,serif" font-size="14.00">edit</text>
<text text-anchor="start" x="432.663" y="-139.911" font-family="Times,serif" font-size="14.00">index</text>
<text text-anchor="start" x="432.663" y="-124.911" font-family="Times,serif" font-size="14.00">new</text>
<text text-anchor="start" x="432.663" y="-109.911" font-family="Times,serif" font-size="14.00">show</text>
<text text-anchor="start" x="432.663" y="-94.9111" font-family="Times,serif" font-size="14.00">update</text>
<polyline fill="none" stroke="black" points="424.663,-87.1111 579.663,-87.1111 "/>
<polyline fill="none" stroke="black" points="424.663,-63.1111 579.663,-63.1111 "/>
<text text-anchor="start" x="432.663" y="-47.9111" font-family="Times,serif" font-size="14.00">_layout</text>
<text text-anchor="start" x="432.663" y="-32.9111" font-family="Times,serif" font-size="14.00">product_params</text>
<text text-anchor="start" x="432.663" y="-17.9111" font-family="Times,serif" font-size="14.00">set_product</text>
</g>
<!-- ApplicationController&#45;&gt;ProductsController -->
<g id="edge7" class="edge"><title>ApplicationController&#45;&gt;ProductsController</title>
<path fill="none" stroke="black" d="M331.8,-306.983C358.202,-277.48 393.006,-238.589 424.271,-203.652"/>
</g>
<!-- SizesController -->
<g id="node10" class="node"><title>SizesController</title>
<path fill="none" stroke="black" d="M244.796,-4.61596C244.796,-4.61596 347.796,-4.61596 347.796,-4.61596 353.796,-4.61596 359.796,-10.616 359.796,-16.616 359.796,-16.616 359.796,-205.616 359.796,-205.616 359.796,-211.616 353.796,-217.616 347.796,-217.616 347.796,-217.616 244.796,-217.616 244.796,-217.616 238.796,-217.616 232.796,-211.616 232.796,-205.616 232.796,-205.616 232.796,-16.616 232.796,-16.616 232.796,-10.616 238.796,-4.61596 244.796,-4.61596"/>
<text text-anchor="middle" x="296.296" y="-202.416" font-family="Times,serif" font-size="14.00">SizesController</text>
<polyline fill="none" stroke="black" points="232.796,-194.616 359.796,-194.616 "/>
<text text-anchor="start" x="240.796" y="-179.416" font-family="Times,serif" font-size="14.00">create</text>
<text text-anchor="start" x="240.796" y="-164.416" font-family="Times,serif" font-size="14.00">destroy</text>
<text text-anchor="start" x="240.796" y="-149.416" font-family="Times,serif" font-size="14.00">edit</text>
<text text-anchor="start" x="240.796" y="-134.416" font-family="Times,serif" font-size="14.00">index</text>
<text text-anchor="start" x="240.796" y="-119.416" font-family="Times,serif" font-size="14.00">new</text>
<text text-anchor="start" x="240.796" y="-104.416" font-family="Times,serif" font-size="14.00">show</text>
<text text-anchor="start" x="240.796" y="-89.416" font-family="Times,serif" font-size="14.00">update</text>
<polyline fill="none" stroke="black" points="232.796,-81.616 359.796,-81.616 "/>
<polyline fill="none" stroke="black" points="232.796,-57.616 359.796,-57.616 "/>
<text text-anchor="start" x="240.796" y="-42.416" font-family="Times,serif" font-size="14.00">_layout</text>
<text text-anchor="start" x="240.796" y="-27.416" font-family="Times,serif" font-size="14.00">set_size</text>
<text text-anchor="start" x="240.796" y="-12.416" font-family="Times,serif" font-size="14.00">size_params</text>
</g>
<!-- ApplicationController&#45;&gt;SizesController -->
<g id="edge8" class="edge"><title>ApplicationController&#45;&gt;SizesController</title>
<path fill="none" stroke="black" d="M290.849,-307.05C291.557,-281.576 292.463,-249.018 293.331,-217.79"/>
</g>
</g>
</svg>
