<?xml version="1.0" encoding="UTF-8" standalone="no"?>
<!DOCTYPE svg PUBLIC "-//W3C//DTD SVG 1.1//EN"
 "http://www.w3.org/Graphics/SVG/1.1/DTD/svg11.dtd">
<!-- Generated by graphviz version 2.36.0 (20140111.2315)
 -->
<!-- Title: models_diagram Pages: 1 -->
<svg width="1512pt" height="696pt"
 viewBox="0.00 0.00 1512.48 696.00" xmlns="http://www.w3.org/2000/svg" xmlns:xlink="http://www.w3.org/1999/xlink">
<g id="graph0" class="graph" transform="scale(1 1) rotate(0) translate(4 692)">
<title>models_diagram</title>
<polygon fill="none" stroke="none" points="-4,4 -4,-692 1508.48,-692 1508.48,4 -4,4"/>
<!-- _diagram_info -->
<g id="node1" class="node"><title>_diagram_info</title>
<text text-anchor="start" x="318.983" y="-673.6" font-family="Times,serif" font-size="13.00">Models diagram</text>
<text text-anchor="start" x="318.983" y="-659.6" font-family="Times,serif" font-size="13.00">Date: May 24 2017 &#45; 15:42</text>
<text text-anchor="start" x="318.983" y="-645.6" font-family="Times,serif" font-size="13.00">Migration version: 20170523184801</text>
<text text-anchor="start" x="318.983" y="-631.6" font-family="Times,serif" font-size="13.00">Generated by RailRoady 1.5.2</text>
<text text-anchor="start" x="318.983" y="-617.6" font-family="Times,serif" font-size="13.00">http://railroady.prestonlee.com</text>
</g>
<!-- ApplicationRecord -->
<g id="node2" class="node"><title>ApplicationRecord</title>
<ellipse fill="none" stroke="black" cx="682.483" cy="-649" rx="96.2631" ry="18"/>
<text text-anchor="middle" x="682.483" y="-645.3" font-family="Times,serif" font-size="14.00">ApplicationRecord</text>
</g>
<!-- Book -->
<g id="node3" class="node"><title>Book</title>
<path fill="none" stroke="black" d="M440.483,-460C440.483,-460 586.483,-460 586.483,-460 592.483,-460 598.483,-466 598.483,-472 598.483,-472 598.483,-554 598.483,-554 598.483,-560 592.483,-566 586.483,-566 586.483,-566 440.483,-566 440.483,-566 434.483,-566 428.483,-560 428.483,-554 428.483,-554 428.483,-472 428.483,-472 428.483,-466 434.483,-460 440.483,-460"/>
<text text-anchor="middle" x="513.483" y="-550.8" font-family="Times,serif" font-size="14.00">Book</text>
<polyline fill="none" stroke="black" points="428.483,-543 598.483,-543 "/>
<text text-anchor="start" x="436.483" y="-527.8" font-family="Times,serif" font-size="14.00">id :INTEGER</text>
<text text-anchor="start" x="436.483" y="-512.8" font-family="Times,serif" font-size="14.00">name :varchar</text>
<text text-anchor="start" x="436.483" y="-497.8" font-family="Times,serif" font-size="14.00">comment :text</text>
<text text-anchor="start" x="436.483" y="-482.8" font-family="Times,serif" font-size="14.00">created_at :datetime</text>
<text text-anchor="start" x="436.483" y="-467.8" font-family="Times,serif" font-size="14.00">updated_at :datetime</text>
</g>
<!-- ApplicationRecord&#45;&gt;Book -->
<g id="edge3" class="edge"><title>ApplicationRecord&#45;&gt;Book</title>
<path fill="none" stroke="black" d="M661.421,-631.3C640.893,-615.023 608.593,-589.413 579.405,-566.27"/>
</g>
<!-- Building -->
<g id="node4" class="node"><title>Building</title>
<path fill="none" stroke="black" d="M46.483,-467.5C46.483,-467.5 192.483,-467.5 192.483,-467.5 198.483,-467.5 204.483,-473.5 204.483,-479.5 204.483,-479.5 204.483,-546.5 204.483,-546.5 204.483,-552.5 198.483,-558.5 192.483,-558.5 192.483,-558.5 46.483,-558.5 46.483,-558.5 40.483,-558.5 34.483,-552.5 34.483,-546.5 34.483,-546.5 34.483,-479.5 34.483,-479.5 34.483,-473.5 40.483,-467.5 46.483,-467.5"/>
<text text-anchor="middle" x="119.483" y="-543.3" font-family="Times,serif" font-size="14.00">Building</text>
<polyline fill="none" stroke="black" points="34.483,-535.5 204.483,-535.5 "/>
<text text-anchor="start" x="42.483" y="-520.3" font-family="Times,serif" font-size="14.00">id :INTEGER</text>
<text text-anchor="start" x="42.483" y="-505.3" font-family="Times,serif" font-size="14.00">btype :varchar</text>
<text text-anchor="start" x="42.483" y="-490.3" font-family="Times,serif" font-size="14.00">created_at :datetime</text>
<text text-anchor="start" x="42.483" y="-475.3" font-family="Times,serif" font-size="14.00">updated_at :datetime</text>
</g>
<!-- ApplicationRecord&#45;&gt;Building -->
<g id="edge4" class="edge"><title>ApplicationRecord&#45;&gt;Building</title>
<path fill="none" stroke="black" d="M645.374,-632.166C625.328,-624.262 599.941,-615.284 576.483,-610 418.32,-574.377 366.676,-627.068 213.483,-574 202.232,-570.103 190.962,-564.615 180.331,-558.526"/>
</g>
<!-- Category -->
<g id="node5" class="node"><title>Category</title>
<path fill="none" stroke="black" d="M234.483,-467.5C234.483,-467.5 380.483,-467.5 380.483,-467.5 386.483,-467.5 392.483,-473.5 392.483,-479.5 392.483,-479.5 392.483,-546.5 392.483,-546.5 392.483,-552.5 386.483,-558.5 380.483,-558.5 380.483,-558.5 234.483,-558.5 234.483,-558.5 228.483,-558.5 222.483,-552.5 222.483,-546.5 222.483,-546.5 222.483,-479.5 222.483,-479.5 222.483,-473.5 228.483,-467.5 234.483,-467.5"/>
<text text-anchor="middle" x="307.483" y="-543.3" font-family="Times,serif" font-size="14.00">Category</text>
<polyline fill="none" stroke="black" points="222.483,-535.5 392.483,-535.5 "/>
<text text-anchor="start" x="230.483" y="-520.3" font-family="Times,serif" font-size="14.00">id :INTEGER</text>
<text text-anchor="start" x="230.483" y="-505.3" font-family="Times,serif" font-size="14.00">title :varchar</text>
<text text-anchor="start" x="230.483" y="-490.3" font-family="Times,serif" font-size="14.00">created_at :datetime</text>
<text text-anchor="start" x="230.483" y="-475.3" font-family="Times,serif" font-size="14.00">updated_at :datetime</text>
</g>
<!-- ApplicationRecord&#45;&gt;Category -->
<g id="edge6" class="edge"><title>ApplicationRecord&#45;&gt;Category</title>
<path fill="none" stroke="black" d="M642.835,-632.522C623.078,-625.134 598.716,-616.509 576.483,-610 507.778,-589.885 486.518,-599.125 419.483,-574 407.813,-569.626 395.838,-564.26 384.262,-558.553"/>
</g>
<!-- City -->
<g id="node6" class="node"><title>City</title>
<path fill="none" stroke="black" d="M1023.48,-234C1023.48,-234 1169.48,-234 1169.48,-234 1175.48,-234 1181.48,-240 1181.48,-246 1181.48,-246 1181.48,-328 1181.48,-328 1181.48,-334 1175.48,-340 1169.48,-340 1169.48,-340 1023.48,-340 1023.48,-340 1017.48,-340 1011.48,-334 1011.48,-328 1011.48,-328 1011.48,-246 1011.48,-246 1011.48,-240 1017.48,-234 1023.48,-234"/>
<text text-anchor="middle" x="1096.48" y="-324.8" font-family="Times,serif" font-size="14.00">City</text>
<polyline fill="none" stroke="black" points="1011.48,-317 1181.48,-317 "/>
<text text-anchor="start" x="1019.48" y="-301.8" font-family="Times,serif" font-size="14.00">id :INTEGER</text>
<text text-anchor="start" x="1019.48" y="-286.8" font-family="Times,serif" font-size="14.00">title :varchar</text>
<text text-anchor="start" x="1019.48" y="-271.8" font-family="Times,serif" font-size="14.00">country_id :integer</text>
<text text-anchor="start" x="1019.48" y="-256.8" font-family="Times,serif" font-size="14.00">created_at :datetime</text>
<text text-anchor="start" x="1019.48" y="-241.8" font-family="Times,serif" font-size="14.00">updated_at :datetime</text>
</g>
<!-- ApplicationRecord&#45;&gt;City -->
<g id="edge7" class="edge"><title>ApplicationRecord&#45;&gt;City</title>
<path fill="none" stroke="black" d="M765.74,-639.78C853.97,-629.389 985.456,-608.561 1021.48,-574 1030.04,-565.794 1065.31,-420.477 1084.28,-340.224"/>
</g>
<!-- Country -->
<g id="node7" class="node"><title>Country</title>
<path fill="none" stroke="black" d="M1080.48,-460C1080.48,-460 1226.48,-460 1226.48,-460 1232.48,-460 1238.48,-466 1238.48,-472 1238.48,-472 1238.48,-554 1238.48,-554 1238.48,-560 1232.48,-566 1226.48,-566 1226.48,-566 1080.48,-566 1080.48,-566 1074.48,-566 1068.48,-560 1068.48,-554 1068.48,-554 1068.48,-472 1068.48,-472 1068.48,-466 1074.48,-460 1080.48,-460"/>
<text text-anchor="middle" x="1153.48" y="-550.8" font-family="Times,serif" font-size="14.00">Country</text>
<polyline fill="none" stroke="black" points="1068.48,-543 1238.48,-543 "/>
<text text-anchor="start" x="1076.48" y="-527.8" font-family="Times,serif" font-size="14.00">id :INTEGER</text>
<text text-anchor="start" x="1076.48" y="-512.8" font-family="Times,serif" font-size="14.00">title :varchar</text>
<text text-anchor="start" x="1076.48" y="-497.8" font-family="Times,serif" font-size="14.00">created_at :datetime</text>
<text text-anchor="start" x="1076.48" y="-482.8" font-family="Times,serif" font-size="14.00">updated_at :datetime</text>
<text text-anchor="start" x="1076.48" y="-467.8" font-family="Times,serif" font-size="14.00">city_id :integer</text>
</g>
<!-- ApplicationRecord&#45;&gt;Country -->
<g id="edge9" class="edge"><title>ApplicationRecord&#45;&gt;Country</title>
<path fill="none" stroke="black" d="M765.707,-639.841C842.667,-630.359 959.194,-611.026 1054.48,-574 1060.48,-571.671 1066.52,-568.986 1072.51,-566.072"/>
</g>
<!-- Cover -->
<g id="node8" class="node"><title>Cover</title>
<path fill="none" stroke="black" d="M666.483,-467.5C666.483,-467.5 812.483,-467.5 812.483,-467.5 818.483,-467.5 824.483,-473.5 824.483,-479.5 824.483,-479.5 824.483,-546.5 824.483,-546.5 824.483,-552.5 818.483,-558.5 812.483,-558.5 812.483,-558.5 666.483,-558.5 666.483,-558.5 660.483,-558.5 654.483,-552.5 654.483,-546.5 654.483,-546.5 654.483,-479.5 654.483,-479.5 654.483,-473.5 660.483,-467.5 666.483,-467.5"/>
<text text-anchor="middle" x="739.483" y="-543.3" font-family="Times,serif" font-size="14.00">Cover</text>
<polyline fill="none" stroke="black" points="654.483,-535.5 824.483,-535.5 "/>
<text text-anchor="start" x="662.483" y="-520.3" font-family="Times,serif" font-size="14.00">id :INTEGER</text>
<text text-anchor="start" x="662.483" y="-505.3" font-family="Times,serif" font-size="14.00">ctype :varchar</text>
<text text-anchor="start" x="662.483" y="-490.3" font-family="Times,serif" font-size="14.00">created_at :datetime</text>
<text text-anchor="start" x="662.483" y="-475.3" font-family="Times,serif" font-size="14.00">updated_at :datetime</text>
</g>
<!-- ApplicationRecord&#45;&gt;Cover -->
<g id="edge10" class="edge"><title>ApplicationRecord&#45;&gt;Cover</title>
<path fill="none" stroke="black" d="M689.702,-631.029C697.401,-612.93 709.914,-583.514 720.468,-558.703"/>
</g>
<!-- Location -->
<g id="node9" class="node"><title>Location</title>
<path fill="none" stroke="black" d="M854.483,-452.5C854.483,-452.5 1000.48,-452.5 1000.48,-452.5 1006.48,-452.5 1012.48,-458.5 1012.48,-464.5 1012.48,-464.5 1012.48,-561.5 1012.48,-561.5 1012.48,-567.5 1006.48,-573.5 1000.48,-573.5 1000.48,-573.5 854.483,-573.5 854.483,-573.5 848.483,-573.5 842.483,-567.5 842.483,-561.5 842.483,-561.5 842.483,-464.5 842.483,-464.5 842.483,-458.5 848.483,-452.5 854.483,-452.5"/>
<text text-anchor="middle" x="927.483" y="-558.3" font-family="Times,serif" font-size="14.00">Location</text>
<polyline fill="none" stroke="black" points="842.483,-550.5 1012.48,-550.5 "/>
<text text-anchor="start" x="850.483" y="-535.3" font-family="Times,serif" font-size="14.00">id :INTEGER</text>
<text text-anchor="start" x="850.483" y="-520.3" font-family="Times,serif" font-size="14.00">country_id :integer</text>
<text text-anchor="start" x="850.483" y="-505.3" font-family="Times,serif" font-size="14.00">city_id :integer</text>
<text text-anchor="start" x="850.483" y="-490.3" font-family="Times,serif" font-size="14.00">address :varchar</text>
<text text-anchor="start" x="850.483" y="-475.3" font-family="Times,serif" font-size="14.00">created_at :datetime</text>
<text text-anchor="start" x="850.483" y="-460.3" font-family="Times,serif" font-size="14.00">updated_at :datetime</text>
</g>
<!-- ApplicationRecord&#45;&gt;Location -->
<g id="edge11" class="edge"><title>ApplicationRecord&#45;&gt;Location</title>
<path fill="none" stroke="black" d="M717.538,-632.187C748.514,-617.893 794.669,-595.807 833.483,-574 836.437,-572.34 839.426,-570.627 842.432,-568.876"/>
</g>
<!-- Product -->
<g id="node10" class="node"><title>Product</title>
<path fill="none" stroke="black" d="M352.483,-159C352.483,-159 510.483,-159 510.483,-159 516.483,-159 522.483,-165 522.483,-171 522.483,-171 522.483,-403 522.483,-403 522.483,-409 516.483,-415 510.483,-415 510.483,-415 352.483,-415 352.483,-415 346.483,-415 340.483,-409 340.483,-403 340.483,-403 340.483,-171 340.483,-171 340.483,-165 346.483,-159 352.483,-159"/>
<text text-anchor="middle" x="431.483" y="-399.8" font-family="Times,serif" font-size="14.00">Product</text>
<polyline fill="none" stroke="black" points="340.483,-392 522.483,-392 "/>
<text text-anchor="start" x="348.483" y="-376.8" font-family="Times,serif" font-size="14.00">id :INTEGER</text>
<text text-anchor="start" x="348.483" y="-361.8" font-family="Times,serif" font-size="14.00">title :varchar</text>
<text text-anchor="start" x="348.483" y="-346.8" font-family="Times,serif" font-size="14.00">description :text</text>
<text text-anchor="start" x="348.483" y="-331.8" font-family="Times,serif" font-size="14.00">price :decimal</text>
<text text-anchor="start" x="348.483" y="-316.8" font-family="Times,serif" font-size="14.00">start_working :varchar</text>
<text text-anchor="start" x="348.483" y="-301.8" font-family="Times,serif" font-size="14.00">end_working :varchar</text>
<text text-anchor="start" x="348.483" y="-286.8" font-family="Times,serif" font-size="14.00">category_id :integer</text>
<text text-anchor="start" x="348.483" y="-271.8" font-family="Times,serif" font-size="14.00">location_id :integer</text>
<text text-anchor="start" x="348.483" y="-256.8" font-family="Times,serif" font-size="14.00">length :varchar</text>
<text text-anchor="start" x="348.483" y="-241.8" font-family="Times,serif" font-size="14.00">width :varchar</text>
<text text-anchor="start" x="348.483" y="-226.8" font-family="Times,serif" font-size="14.00">height :varchar</text>
<text text-anchor="start" x="348.483" y="-211.8" font-family="Times,serif" font-size="14.00">cover_id :integer</text>
<text text-anchor="start" x="348.483" y="-196.8" font-family="Times,serif" font-size="14.00">building_id :integer</text>
<text text-anchor="start" x="348.483" y="-181.8" font-family="Times,serif" font-size="14.00">created_at :datetime</text>
<text text-anchor="start" x="348.483" y="-166.8" font-family="Times,serif" font-size="14.00">updated_at :datetime</text>
</g>
<!-- ApplicationRecord&#45;&gt;Product -->
<g id="edge13" class="edge"><title>ApplicationRecord&#45;&gt;Product</title>
<path fill="none" stroke="black" d="M646.416,-632.235C626.243,-624.144 600.41,-614.968 576.483,-610 516.412,-597.527 67.4279,-618.775 25.483,-574 -11.587,-534.429 -4.83935,-496.951 25.483,-452 95.5213,-348.172 243.563,-310.059 340.201,-296.081"/>
</g>
<!-- Reservation -->
<g id="node11" class="node"><title>Reservation</title>
<path fill="none" stroke="black" d="M477.483,-0.5C477.483,-0.5 623.483,-0.5 623.483,-0.5 629.483,-0.5 635.483,-6.5 635.483,-12.5 635.483,-12.5 635.483,-109.5 635.483,-109.5 635.483,-115.5 629.483,-121.5 623.483,-121.5 623.483,-121.5 477.483,-121.5 477.483,-121.5 471.483,-121.5 465.483,-115.5 465.483,-109.5 465.483,-109.5 465.483,-12.5 465.483,-12.5 465.483,-6.5 471.483,-0.5 477.483,-0.5"/>
<text text-anchor="middle" x="550.483" y="-106.3" font-family="Times,serif" font-size="14.00">Reservation</text>
<polyline fill="none" stroke="black" points="465.483,-98.5 635.483,-98.5 "/>
<text text-anchor="start" x="473.483" y="-83.3" font-family="Times,serif" font-size="14.00">id :INTEGER</text>
<text text-anchor="start" x="473.483" y="-68.3" font-family="Times,serif" font-size="14.00">time :varchar</text>
<text text-anchor="start" x="473.483" y="-53.3" font-family="Times,serif" font-size="14.00">book_id :integer</text>
<text text-anchor="start" x="473.483" y="-38.3" font-family="Times,serif" font-size="14.00">product_id :integer</text>
<text text-anchor="start" x="473.483" y="-23.3" font-family="Times,serif" font-size="14.00">created_at :datetime</text>
<text text-anchor="start" x="473.483" y="-8.3" font-family="Times,serif" font-size="14.00">updated_at :datetime</text>
</g>
<!-- ApplicationRecord&#45;&gt;Reservation -->
<g id="edge14" class="edge"><title>ApplicationRecord&#45;&gt;Reservation</title>
<path fill="none" stroke="black" d="M672.229,-630.952C663.859,-616.322 652.333,-594.427 645.483,-574 592.307,-415.427 566.375,-218.659 556.081,-121.711"/>
</g>
<!-- User -->
<g id="node12" class="node"><title>User</title>
<path fill="none" stroke="black" d="M1268.48,-452.5C1268.48,-452.5 1492.48,-452.5 1492.48,-452.5 1498.48,-452.5 1504.48,-458.5 1504.48,-464.5 1504.48,-464.5 1504.48,-561.5 1504.48,-561.5 1504.48,-567.5 1498.48,-573.5 1492.48,-573.5 1492.48,-573.5 1268.48,-573.5 1268.48,-573.5 1262.48,-573.5 1256.48,-567.5 1256.48,-561.5 1256.48,-561.5 1256.48,-464.5 1256.48,-464.5 1256.48,-458.5 1262.48,-452.5 1268.48,-452.5"/>
<text text-anchor="middle" x="1380.48" y="-558.3" font-family="Times,serif" font-size="14.00">User</text>
<polyline fill="none" stroke="black" points="1256.48,-550.5 1504.48,-550.5 "/>
<text text-anchor="start" x="1264.48" y="-535.3" font-family="Times,serif" font-size="14.00">id :INTEGER</text>
<text text-anchor="start" x="1264.48" y="-520.3" font-family="Times,serif" font-size="14.00">email :varchar</text>
<text text-anchor="start" x="1264.48" y="-505.3" font-family="Times,serif" font-size="14.00">encrypted_password :varchar</text>
<text text-anchor="start" x="1264.48" y="-490.3" font-family="Times,serif" font-size="14.00">remember_created_at :datetime</text>
<text text-anchor="start" x="1264.48" y="-475.3" font-family="Times,serif" font-size="14.00">created_at :datetime</text>
<text text-anchor="start" x="1264.48" y="-460.3" font-family="Times,serif" font-size="14.00">updated_at :datetime</text>
</g>
<!-- ApplicationRecord&#45;&gt;User -->
<g id="edge15" class="edge"><title>ApplicationRecord&#45;&gt;User</title>
<path fill="none" stroke="black" d="M775.662,-644.158C889.066,-637.586 1085.48,-620.061 1247.48,-574 1250.41,-573.169 1253.35,-572.283 1256.3,-571.351"/>
</g>
<!-- Book&#45;&gt;Product -->
<g id="edge2" class="edge"><title>Book&#45;&gt;Product</title>
<path fill="none" stroke="#544d89" d="M490.896,-450.298C487.93,-442.198 484.803,-433.655 481.598,-424.898"/>
<polygon fill="#544d89" stroke="#544d89" points="490.923,-450.374 490.135,-461.312 492.642,-455.069 494.361,-459.765 494.361,-459.765 494.361,-459.765 492.642,-455.069 498.587,-458.218 490.923,-450.374 490.923,-450.374"/>
<polygon fill="#544d89" stroke="#544d89" points="481.53,-424.714 482.318,-413.776 479.811,-420.019 478.092,-415.323 478.092,-415.323 478.092,-415.323 479.811,-420.019 473.867,-416.87 481.53,-424.714 481.53,-424.714"/>
</g>
<!-- Book&#45;&gt;Reservation -->
<g id="edge1" class="edge"><title>Book&#45;&gt;Reservation</title>
<path fill="none" stroke="#c82ae8" d="M526.027,-451.791C528.134,-439.968 530.087,-427.628 531.483,-416 543.265,-317.86 547.742,-203.533 549.443,-131.954"/>
<ellipse fill="none" stroke="#c82ae8" cx="525.267" cy="-455.943" rx="4.00001" ry="4.00001"/>
<polygon fill="#c82ae8" stroke="#c82ae8" points="549.448,-131.708 554.173,-121.812 549.561,-126.709 549.674,-121.71 549.674,-121.71 549.674,-121.71 549.561,-126.709 545.175,-121.609 549.448,-131.708 549.448,-131.708"/>
</g>
<!-- Category&#45;&gt;Category -->
<g id="edge5" class="edge"><title>Category&#45;&gt;Category</title>
<path fill="none" stroke="#69c973" d="M400.022,-531.617C406.52,-527.374 410.483,-521.168 410.483,-513 410.483,-504.832 406.52,-498.626 400.022,-494.383"/>
<ellipse fill="none" stroke="#69c973" cx="396.321" cy="-533.44" rx="4.00002" ry="4.00002"/>
<ellipse fill="#69c973" stroke="#69c973" cx="396.321" cy="-492.56" rx="4.00002" ry="4.00002"/>
</g>
<!-- Country&#45;&gt;City -->
<g id="edge8" class="edge"><title>Country&#45;&gt;City</title>
<path fill="none" stroke="#e4425e" d="M1138.11,-451.58C1130.13,-420.225 1120.39,-381.968 1112.35,-350.338"/>
<ellipse fill="none" stroke="#e4425e" cx="1139.2" cy="-455.888" rx="4.00001" ry="4.00001"/>
<polygon fill="#e4425e" stroke="#e4425e" points="1112.26,-350.009 1114.16,-339.208 1111.03,-345.164 1109.8,-340.318 1109.8,-340.318 1109.8,-340.318 1111.03,-345.164 1105.44,-341.428 1112.26,-350.009 1112.26,-350.009"/>
</g>
<!-- Product&#45;&gt;Reservation -->
<g id="edge12" class="edge"><title>Product&#45;&gt;Reservation</title>
<path fill="none" stroke="#b5f0f9" d="M502.828,-151.704C506.629,-144.549 510.362,-137.521 513.963,-130.743"/>
<ellipse fill="none" stroke="#b5f0f9" cx="500.857" cy="-155.414" rx="4.00002" ry="4.00002"/>
<polygon fill="#b5f0f9" stroke="#b5f0f9" points="514.094,-130.497 522.76,-123.777 516.44,-126.081 518.785,-121.666 518.785,-121.666 518.785,-121.666 516.44,-126.081 514.811,-119.555 514.094,-130.497 514.094,-130.497"/>
</g>
</g>
</svg>
