<?xml version="1.0" encoding="UTF-8" standalone="no"?>
<!DOCTYPE svg PUBLIC "-//W3C//DTD SVG 1.1//EN"
 "http://www.w3.org/Graphics/SVG/1.1/DTD/svg11.dtd">
<!-- Generated by graphviz version 2.36.0 (20140111.2315)
 -->
<!-- Title: models_diagram Pages: 1 -->
<svg width="1362pt" height="478pt"
 viewBox="0.00 0.00 1362.00 478.00" xmlns="http://www.w3.org/2000/svg" xmlns:xlink="http://www.w3.org/1999/xlink">
<g id="graph0" class="graph" transform="scale(1 1) rotate(0) translate(4 474)">
<title>models_diagram</title>
<polygon fill="none" stroke="none" points="-4,4 -4,-474 1358,-474 1358,4 -4,4"/>
<!-- _diagram_info -->
<g id="node1" class="node"><title>_diagram_info</title>
<text text-anchor="start" x="229.5" y="-455.6" font-family="Times,serif" font-size="13.00">Models diagram</text>
<text text-anchor="start" x="229.5" y="-441.6" font-family="Times,serif" font-size="13.00">Date: May 12 2017 &#45; 22:09</text>
<text text-anchor="start" x="229.5" y="-427.6" font-family="Times,serif" font-size="13.00">Migration version: 20170510104527</text>
<text text-anchor="start" x="229.5" y="-413.6" font-family="Times,serif" font-size="13.00">Generated by RailRoady 1.5.2</text>
<text text-anchor="start" x="229.5" y="-399.6" font-family="Times,serif" font-size="13.00">http://railroady.prestonlee.com</text>
</g>
<!-- ApplicationRecord -->
<g id="node2" class="node"><title>ApplicationRecord</title>
<ellipse fill="none" stroke="black" cx="593" cy="-431" rx="96.2631" ry="18"/>
<text text-anchor="middle" x="593" y="-427.3" font-family="Times,serif" font-size="14.00">ApplicationRecord</text>
</g>
<!-- Building -->
<g id="node3" class="node"><title>Building</title>
<path fill="none" stroke="black" d="M12,-204.5C12,-204.5 158,-204.5 158,-204.5 164,-204.5 170,-210.5 170,-216.5 170,-216.5 170,-283.5 170,-283.5 170,-289.5 164,-295.5 158,-295.5 158,-295.5 12,-295.5 12,-295.5 6,-295.5 0,-289.5 0,-283.5 0,-283.5 0,-216.5 0,-216.5 0,-210.5 6,-204.5 12,-204.5"/>
<text text-anchor="middle" x="85" y="-280.3" font-family="Times,serif" font-size="14.00">Building</text>
<polyline fill="none" stroke="black" points="0,-272.5 170,-272.5 "/>
<text text-anchor="start" x="8" y="-257.3" font-family="Times,serif" font-size="14.00">id :INTEGER</text>
<text text-anchor="start" x="8" y="-242.3" font-family="Times,serif" font-size="14.00">btype :varchar</text>
<text text-anchor="start" x="8" y="-227.3" font-family="Times,serif" font-size="14.00">created_at :datetime</text>
<text text-anchor="start" x="8" y="-212.3" font-family="Times,serif" font-size="14.00">updated_at :datetime</text>
</g>
<!-- ApplicationRecord&#45;&gt;Building -->
<g id="edge1" class="edge"><title>ApplicationRecord&#45;&gt;Building</title>
<path fill="none" stroke="black" d="M555.853,-414.332C535.796,-406.475 510.411,-397.489 487,-392 352.818,-360.541 301.343,-419.458 179,-356 152.394,-342.2 129.727,-317.564 113.321,-295.623"/>
</g>
<!-- Category -->
<g id="node4" class="node"><title>Category</title>
<path fill="none" stroke="black" d="M200,-204.5C200,-204.5 346,-204.5 346,-204.5 352,-204.5 358,-210.5 358,-216.5 358,-216.5 358,-283.5 358,-283.5 358,-289.5 352,-295.5 346,-295.5 346,-295.5 200,-295.5 200,-295.5 194,-295.5 188,-289.5 188,-283.5 188,-283.5 188,-216.5 188,-216.5 188,-210.5 194,-204.5 200,-204.5"/>
<text text-anchor="middle" x="273" y="-280.3" font-family="Times,serif" font-size="14.00">Category</text>
<polyline fill="none" stroke="black" points="188,-272.5 358,-272.5 "/>
<text text-anchor="start" x="196" y="-257.3" font-family="Times,serif" font-size="14.00">id :INTEGER</text>
<text text-anchor="start" x="196" y="-242.3" font-family="Times,serif" font-size="14.00">title :varchar</text>
<text text-anchor="start" x="196" y="-227.3" font-family="Times,serif" font-size="14.00">created_at :datetime</text>
<text text-anchor="start" x="196" y="-212.3" font-family="Times,serif" font-size="14.00">updated_at :datetime</text>
</g>
<!-- ApplicationRecord&#45;&gt;Category -->
<g id="edge2" class="edge"><title>ApplicationRecord&#45;&gt;Category</title>
<path fill="none" stroke="black" d="M551.605,-414.718C532.074,-407.621 508.406,-399.184 487,-392 436.226,-374.96 417.402,-384.407 372,-356 346.831,-340.252 323.751,-316.585 306.218,-295.705"/>
</g>
<!-- City -->
<g id="node5" class="node"><title>City</title>
<path fill="none" stroke="black" d="M369,-1C369,-1 515,-1 515,-1 521,-1 527,-7 527,-13 527,-13 527,-95 527,-95 527,-101 521,-107 515,-107 515,-107 369,-107 369,-107 363,-107 357,-101 357,-95 357,-95 357,-13 357,-13 357,-7 363,-1 369,-1"/>
<text text-anchor="middle" x="442" y="-91.8" font-family="Times,serif" font-size="14.00">City</text>
<polyline fill="none" stroke="black" points="357,-84 527,-84 "/>
<text text-anchor="start" x="365" y="-68.8" font-family="Times,serif" font-size="14.00">id :INTEGER</text>
<text text-anchor="start" x="365" y="-53.8" font-family="Times,serif" font-size="14.00">title :varchar</text>
<text text-anchor="start" x="365" y="-38.8" font-family="Times,serif" font-size="14.00">country_id :integer</text>
<text text-anchor="start" x="365" y="-23.8" font-family="Times,serif" font-size="14.00">created_at :datetime</text>
<text text-anchor="start" x="365" y="-8.8" font-family="Times,serif" font-size="14.00">updated_at :datetime</text>
</g>
<!-- ApplicationRecord&#45;&gt;City -->
<g id="edge3" class="edge"><title>ApplicationRecord&#45;&gt;City</title>
<path fill="none" stroke="black" d="M550.669,-414.705C496.574,-394.963 409.344,-362.378 405,-356 354.098,-281.261 388.15,-171.325 416.076,-107.06"/>
</g>
<!-- Country -->
<g id="node6" class="node"><title>Country</title>
<path fill="none" stroke="black" d="M426,-197C426,-197 572,-197 572,-197 578,-197 584,-203 584,-209 584,-209 584,-291 584,-291 584,-297 578,-303 572,-303 572,-303 426,-303 426,-303 420,-303 414,-297 414,-291 414,-291 414,-209 414,-209 414,-203 420,-197 426,-197"/>
<text text-anchor="middle" x="499" y="-287.8" font-family="Times,serif" font-size="14.00">Country</text>
<polyline fill="none" stroke="black" points="414,-280 584,-280 "/>
<text text-anchor="start" x="422" y="-264.8" font-family="Times,serif" font-size="14.00">id :INTEGER</text>
<text text-anchor="start" x="422" y="-249.8" font-family="Times,serif" font-size="14.00">title :varchar</text>
<text text-anchor="start" x="422" y="-234.8" font-family="Times,serif" font-size="14.00">created_at :datetime</text>
<text text-anchor="start" x="422" y="-219.8" font-family="Times,serif" font-size="14.00">updated_at :datetime</text>
<text text-anchor="start" x="422" y="-204.8" font-family="Times,serif" font-size="14.00">city_id :integer</text>
</g>
<!-- ApplicationRecord&#45;&gt;Country -->
<g id="edge5" class="edge"><title>ApplicationRecord&#45;&gt;Country</title>
<path fill="none" stroke="black" d="M583.987,-412.837C570.845,-387.81 545.867,-340.246 526.376,-303.131"/>
</g>
<!-- Cover -->
<g id="node7" class="node"><title>Cover</title>
<path fill="none" stroke="black" d="M614,-204.5C614,-204.5 760,-204.5 760,-204.5 766,-204.5 772,-210.5 772,-216.5 772,-216.5 772,-283.5 772,-283.5 772,-289.5 766,-295.5 760,-295.5 760,-295.5 614,-295.5 614,-295.5 608,-295.5 602,-289.5 602,-283.5 602,-283.5 602,-216.5 602,-216.5 602,-210.5 608,-204.5 614,-204.5"/>
<text text-anchor="middle" x="687" y="-280.3" font-family="Times,serif" font-size="14.00">Cover</text>
<polyline fill="none" stroke="black" points="602,-272.5 772,-272.5 "/>
<text text-anchor="start" x="610" y="-257.3" font-family="Times,serif" font-size="14.00">id :INTEGER</text>
<text text-anchor="start" x="610" y="-242.3" font-family="Times,serif" font-size="14.00">ctype :varchar</text>
<text text-anchor="start" x="610" y="-227.3" font-family="Times,serif" font-size="14.00">created_at :datetime</text>
<text text-anchor="start" x="610" y="-212.3" font-family="Times,serif" font-size="14.00">updated_at :datetime</text>
</g>
<!-- ApplicationRecord&#45;&gt;Cover -->
<g id="edge6" class="edge"><title>ApplicationRecord&#45;&gt;Cover</title>
<path fill="none" stroke="black" d="M602.013,-412.837C616.074,-386.06 643.685,-333.483 663.626,-295.51"/>
</g>
<!-- Location -->
<g id="node8" class="node"><title>Location</title>
<path fill="none" stroke="black" d="M802,-189.5C802,-189.5 948,-189.5 948,-189.5 954,-189.5 960,-195.5 960,-201.5 960,-201.5 960,-298.5 960,-298.5 960,-304.5 954,-310.5 948,-310.5 948,-310.5 802,-310.5 802,-310.5 796,-310.5 790,-304.5 790,-298.5 790,-298.5 790,-201.5 790,-201.5 790,-195.5 796,-189.5 802,-189.5"/>
<text text-anchor="middle" x="875" y="-295.3" font-family="Times,serif" font-size="14.00">Location</text>
<polyline fill="none" stroke="black" points="790,-287.5 960,-287.5 "/>
<text text-anchor="start" x="798" y="-272.3" font-family="Times,serif" font-size="14.00">id :INTEGER</text>
<text text-anchor="start" x="798" y="-257.3" font-family="Times,serif" font-size="14.00">country_id :integer</text>
<text text-anchor="start" x="798" y="-242.3" font-family="Times,serif" font-size="14.00">city_id :integer</text>
<text text-anchor="start" x="798" y="-227.3" font-family="Times,serif" font-size="14.00">address :varchar</text>
<text text-anchor="start" x="798" y="-212.3" font-family="Times,serif" font-size="14.00">created_at :datetime</text>
<text text-anchor="start" x="798" y="-197.3" font-family="Times,serif" font-size="14.00">updated_at :datetime</text>
</g>
<!-- ApplicationRecord&#45;&gt;Location -->
<g id="edge7" class="edge"><title>ApplicationRecord&#45;&gt;Location</title>
<path fill="none" stroke="black" d="M647.315,-415.968C686.741,-404.101 740.112,-384.444 781,-356 798.976,-343.495 815.872,-326.9 830.246,-310.603"/>
</g>
<!-- Product -->
<g id="node9" class="node"><title>Product</title>
<path fill="none" stroke="black" d="M990,-144.5C990,-144.5 1154,-144.5 1154,-144.5 1160,-144.5 1166,-150.5 1166,-156.5 1166,-156.5 1166,-343.5 1166,-343.5 1166,-349.5 1160,-355.5 1154,-355.5 1154,-355.5 990,-355.5 990,-355.5 984,-355.5 978,-349.5 978,-343.5 978,-343.5 978,-156.5 978,-156.5 978,-150.5 984,-144.5 990,-144.5"/>
<text text-anchor="middle" x="1072" y="-340.3" font-family="Times,serif" font-size="14.00">Product</text>
<polyline fill="none" stroke="black" points="978,-332.5 1166,-332.5 "/>
<text text-anchor="start" x="986" y="-317.3" font-family="Times,serif" font-size="14.00">id :INTEGER</text>
<text text-anchor="start" x="986" y="-302.3" font-family="Times,serif" font-size="14.00">title :varchar</text>
<text text-anchor="start" x="986" y="-287.3" font-family="Times,serif" font-size="14.00">description :text</text>
<text text-anchor="start" x="986" y="-272.3" font-family="Times,serif" font-size="14.00">price :decimal</text>
<text text-anchor="start" x="986" y="-257.3" font-family="Times,serif" font-size="14.00">working_hours :varchar</text>
<text text-anchor="start" x="986" y="-242.3" font-family="Times,serif" font-size="14.00">category_id :integer</text>
<text text-anchor="start" x="986" y="-227.3" font-family="Times,serif" font-size="14.00">location_id :integer</text>
<text text-anchor="start" x="986" y="-212.3" font-family="Times,serif" font-size="14.00">size_id :integer</text>
<text text-anchor="start" x="986" y="-197.3" font-family="Times,serif" font-size="14.00">cover_id :integer</text>
<text text-anchor="start" x="986" y="-182.3" font-family="Times,serif" font-size="14.00">building_id :integer</text>
<text text-anchor="start" x="986" y="-167.3" font-family="Times,serif" font-size="14.00">created_at :datetime</text>
<text text-anchor="start" x="986" y="-152.3" font-family="Times,serif" font-size="14.00">updated_at :datetime</text>
</g>
<!-- ApplicationRecord&#45;&gt;Product -->
<g id="edge8" class="edge"><title>ApplicationRecord&#45;&gt;Product</title>
<path fill="none" stroke="black" d="M687.04,-426.874C766.414,-420.754 880.875,-403.535 969,-356 972.034,-354.363 975.035,-352.607 977.997,-350.749"/>
</g>
<!-- Size -->
<g id="node10" class="node"><title>Size</title>
<path fill="none" stroke="black" d="M1196,-189.5C1196,-189.5 1342,-189.5 1342,-189.5 1348,-189.5 1354,-195.5 1354,-201.5 1354,-201.5 1354,-298.5 1354,-298.5 1354,-304.5 1348,-310.5 1342,-310.5 1342,-310.5 1196,-310.5 1196,-310.5 1190,-310.5 1184,-304.5 1184,-298.5 1184,-298.5 1184,-201.5 1184,-201.5 1184,-195.5 1190,-189.5 1196,-189.5"/>
<text text-anchor="middle" x="1269" y="-295.3" font-family="Times,serif" font-size="14.00">Size</text>
<polyline fill="none" stroke="black" points="1184,-287.5 1354,-287.5 "/>
<text text-anchor="start" x="1192" y="-272.3" font-family="Times,serif" font-size="14.00">id :INTEGER</text>
<text text-anchor="start" x="1192" y="-257.3" font-family="Times,serif" font-size="14.00">width :integer</text>
<text text-anchor="start" x="1192" y="-242.3" font-family="Times,serif" font-size="14.00">height :integer</text>
<text text-anchor="start" x="1192" y="-227.3" font-family="Times,serif" font-size="14.00">length :integer</text>
<text text-anchor="start" x="1192" y="-212.3" font-family="Times,serif" font-size="14.00">created_at :datetime</text>
<text text-anchor="start" x="1192" y="-197.3" font-family="Times,serif" font-size="14.00">updated_at :datetime</text>
</g>
<!-- ApplicationRecord&#45;&gt;Size -->
<g id="edge9" class="edge"><title>ApplicationRecord&#45;&gt;Size</title>
<path fill="none" stroke="black" d="M685.818,-426.056C828.03,-418.708 1092.09,-399.536 1175,-356 1195.58,-345.194 1213.83,-327.948 1228.64,-310.53"/>
</g>
<!-- Country&#45;&gt;City -->
<g id="edge4" class="edge"><title>Country&#45;&gt;City</title>
<path fill="none" stroke="#2d6de1" d="M481.304,-188.773C474.571,-165.855 466.893,-139.722 460.12,-116.672"/>
<ellipse fill="none" stroke="#2d6de1" cx="482.522" cy="-192.919" rx="4.00001" ry="4.00001"/>
<polygon fill="#2d6de1" stroke="#2d6de1" points="460.098,-116.595 461.596,-105.732 458.688,-111.798 457.278,-107 457.278,-107 457.278,-107 458.688,-111.798 452.961,-108.269 460.098,-116.595 460.098,-116.595"/>
</g>
</g>
</svg>
