<?xml version="1.0" encoding="UTF-8" standalone="no"?>
<!DOCTYPE svg PUBLIC "-//W3C//DTD SVG 1.1//EN"
 "http://www.w3.org/Graphics/SVG/1.1/DTD/svg11.dtd">
<!-- Generated by graphviz version 2.36.0 (20140111.2315)
 -->
<!-- Title: models_diagram Pages: 1 -->
<svg width="927pt" height="302pt"
 viewBox="0.00 0.00 927.05 302.00" xmlns="http://www.w3.org/2000/svg" xmlns:xlink="http://www.w3.org/1999/xlink">
<g id="graph0" class="graph" transform="scale(1 1) rotate(0) translate(4 298)">
<title>models_diagram</title>
<polygon fill="none" stroke="none" points="-4,4 -4,-298 923.049,-298 923.049,4 -4,4"/>
<!-- _diagram_info -->
<g id="node1" class="node"><title>_diagram_info</title>
<text text-anchor="start" x="81.549" y="-279.6" font-family="Times,serif" font-size="13.00">Models diagram</text>
<text text-anchor="start" x="81.549" y="-265.6" font-family="Times,serif" font-size="13.00">Date: May 24 2017 &#45; 15:42</text>
<text text-anchor="start" x="81.549" y="-251.6" font-family="Times,serif" font-size="13.00">Migration version: 20170523184801</text>
<text text-anchor="start" x="81.549" y="-237.6" font-family="Times,serif" font-size="13.00">Generated by RailRoady 1.5.2</text>
<text text-anchor="start" x="81.549" y="-223.6" font-family="Times,serif" font-size="13.00">http://railroady.prestonlee.com</text>
</g>
<!-- ApplicationRecord -->
<g id="node2" class="node"><title>ApplicationRecord</title>
<ellipse fill="none" stroke="black" cx="445.049" cy="-255" rx="96.2631" ry="18"/>
<text text-anchor="middle" x="445.049" y="-251.3" font-family="Times,serif" font-size="14.00">ApplicationRecord</text>
</g>
<!-- Book -->
<g id="node3" class="node"><title>Book</title>
<ellipse fill="none" stroke="black" cx="317.049" cy="-162" rx="34.1708" ry="18"/>
<text text-anchor="middle" x="317.049" y="-158.3" font-family="Times,serif" font-size="14.00">Book</text>
</g>
<!-- ApplicationRecord&#45;&gt;Book -->
<g id="edge3" class="edge"><title>ApplicationRecord&#45;&gt;Book</title>
<path fill="none" stroke="black" d="M421.869,-237.521C397.519,-220.209 359.637,-193.277 336.702,-176.972"/>
</g>
<!-- Building -->
<g id="node4" class="node"><title>Building</title>
<ellipse fill="none" stroke="black" cx="71.049" cy="-162" rx="50.0684" ry="18"/>
<text text-anchor="middle" x="71.049" y="-158.3" font-family="Times,serif" font-size="14.00">Building</text>
</g>
<!-- ApplicationRecord&#45;&gt;Building -->
<g id="edge4" class="edge"><title>ApplicationRecord&#45;&gt;Building</title>
<path fill="none" stroke="black" d="M406.79,-238.467C386.856,-230.84 361.925,-222.022 339.049,-216 247.897,-192.006 221.918,-201.08 130.049,-180 122.88,-178.355 115.289,-176.362 108.025,-174.328"/>
</g>
<!-- Category -->
<g id="node5" class="node"><title>Category</title>
<ellipse fill="none" stroke="black" cx="193.049" cy="-162" rx="53.4184" ry="18"/>
<text text-anchor="middle" x="193.049" y="-158.3" font-family="Times,serif" font-size="14.00">Category</text>
</g>
<!-- ApplicationRecord&#45;&gt;Category -->
<g id="edge6" class="edge"><title>ApplicationRecord&#45;&gt;Category</title>
<path fill="none" stroke="black" d="M402.87,-238.769C353.83,-221.06 273.787,-192.156 228.045,-175.637"/>
</g>
<!-- City -->
<g id="node6" class="node"><title>City</title>
<ellipse fill="none" stroke="black" cx="709.049" cy="-90" rx="30.3206" ry="18"/>
<text text-anchor="middle" x="709.049" y="-86.3" font-family="Times,serif" font-size="14.00">City</text>
</g>
<!-- ApplicationRecord&#45;&gt;City -->
<g id="edge7" class="edge"><title>ApplicationRecord&#45;&gt;City</title>
<path fill="none" stroke="black" d="M523.068,-244.308C597.9,-233.219 703.103,-212.308 728.049,-180 744.464,-158.741 730.699,-126.469 719.599,-107.186"/>
</g>
<!-- Country -->
<g id="node7" class="node"><title>Country</title>
<ellipse fill="none" stroke="black" cx="671.049" cy="-162" rx="48.6179" ry="18"/>
<text text-anchor="middle" x="671.049" y="-158.3" font-family="Times,serif" font-size="14.00">Country</text>
</g>
<!-- ApplicationRecord&#45;&gt;Country -->
<g id="edge9" class="edge"><title>ApplicationRecord&#45;&gt;Country</title>
<path fill="none" stroke="black" d="M483.643,-238.46C527.642,-220.744 598.733,-192.118 639.539,-175.688"/>
</g>
<!-- Cover -->
<g id="node8" class="node"><title>Cover</title>
<ellipse fill="none" stroke="black" cx="445.049" cy="-162" rx="38.0212" ry="18"/>
<text text-anchor="middle" x="445.049" y="-158.3" font-family="Times,serif" font-size="14.00">Cover</text>
</g>
<!-- ApplicationRecord&#45;&gt;Cover -->
<g id="edge10" class="edge"><title>ApplicationRecord&#45;&gt;Cover</title>
<path fill="none" stroke="black" d="M445.049,-236.884C445.049,-220.614 445.049,-196.284 445.049,-180.04"/>
</g>
<!-- Location -->
<g id="node9" class="node"><title>Location</title>
<ellipse fill="none" stroke="black" cx="553.049" cy="-162" rx="51.0191" ry="18"/>
<text text-anchor="middle" x="553.049" y="-158.3" font-family="Times,serif" font-size="14.00">Location</text>
</g>
<!-- ApplicationRecord&#45;&gt;Location -->
<g id="edge11" class="edge"><title>ApplicationRecord&#45;&gt;Location</title>
<path fill="none" stroke="black" d="M464.858,-237.309C484.588,-220.685 514.664,-195.343 534.09,-178.975"/>
</g>
<!-- Product -->
<g id="node10" class="node"><title>Product</title>
<ellipse fill="none" stroke="black" cx="253.049" cy="-90" rx="48.1437" ry="18"/>
<text text-anchor="middle" x="253.049" y="-86.3" font-family="Times,serif" font-size="14.00">Product</text>
</g>
<!-- ApplicationRecord&#45;&gt;Product -->
<g id="edge13" class="edge"><title>ApplicationRecord&#45;&gt;Product</title>
<path fill="none" stroke="black" d="M407.917,-238.268C387.864,-230.394 362.478,-221.41 339.049,-216 267.818,-199.552 60.8321,-234.449 12.049,-180 -45.2446,-116.053 119.895,-97.9526 205.346,-92.9077"/>
</g>
<!-- Reservation -->
<g id="node11" class="node"><title>Reservation</title>
<ellipse fill="none" stroke="black" cx="329.049" cy="-18" rx="65.9423" ry="18"/>
<text text-anchor="middle" x="329.049" y="-14.3" font-family="Times,serif" font-size="14.00">Reservation</text>
</g>
<!-- ApplicationRecord&#45;&gt;Reservation -->
<g id="edge14" class="edge"><title>ApplicationRecord&#45;&gt;Reservation</title>
<path fill="none" stroke="black" d="M433.226,-237.124C423.196,-222.42 408.771,-200.327 398.049,-180 371.376,-129.432 346.667,-66.3074 335.422,-36.3403"/>
</g>
<!-- Size -->
<g id="node12" class="node"><title>Size</title>
<ellipse fill="none" stroke="black" cx="806.049" cy="-162" rx="29.3479" ry="18"/>
<text text-anchor="middle" x="806.049" y="-158.3" font-family="Times,serif" font-size="14.00">Size</text>
</g>
<!-- ApplicationRecord&#45;&gt;Size -->
<g id="edge15" class="edge"><title>ApplicationRecord&#45;&gt;Size</title>
<path fill="none" stroke="black" d="M509.805,-241.641C574.371,-228.675 676.043,-206.512 762.049,-180 768.623,-177.974 775.62,-175.447 782.054,-172.966"/>
</g>
<!-- User -->
<g id="node13" class="node"><title>User</title>
<ellipse fill="none" stroke="black" cx="886.049" cy="-162" rx="32.2457" ry="18"/>
<text text-anchor="middle" x="886.049" y="-158.3" font-family="Times,serif" font-size="14.00">User</text>
</g>
<!-- ApplicationRecord&#45;&gt;User -->
<g id="edge16" class="edge"><title>ApplicationRecord&#45;&gt;User</title>
<path fill="none" stroke="black" d="M522.991,-244.278C604.213,-233.053 734.657,-211.929 844.049,-180 849.788,-178.325 855.821,-176.146 861.468,-173.91"/>
</g>
<!-- Book&#45;&gt;Product -->
<g id="edge2" class="edge"><title>Book&#45;&gt;Product</title>
<path fill="none" stroke="#44a367" d="M295.904,-137.872C289.226,-130.569 281.834,-122.483 275.095,-115.113"/>
<polygon fill="#44a367" stroke="#44a367" points="296.098,-138.084 299.524,-148.501 299.471,-141.775 302.845,-145.465 302.845,-145.465 302.845,-145.465 299.471,-141.775 306.166,-142.428 296.098,-138.084 296.098,-138.084"/>
<polygon fill="#44a367" stroke="#44a367" points="274.852,-114.847 271.426,-104.431 271.479,-111.157 268.105,-107.467 268.105,-107.467 268.105,-107.467 271.479,-111.157 264.784,-110.504 274.852,-114.847 274.852,-114.847"/>
</g>
<!-- Book&#45;&gt;Reservation -->
<g id="edge1" class="edge"><title>Book&#45;&gt;Reservation</title>
<path fill="none" stroke="#816f14" d="M319.199,-135.558C321.321,-110.444 324.556,-72.164 326.734,-46.3932"/>
<ellipse fill="none" stroke="#816f14" cx="318.833" cy="-139.886" rx="4" ry="4"/>
<polygon fill="#816f14" stroke="#816f14" points="326.754,-46.1537 332.08,-36.5682 327.175,-41.1715 327.596,-36.1893 327.596,-36.1893 327.596,-36.1893 327.175,-41.1715 323.112,-35.8103 326.754,-46.1537 326.754,-46.1537"/>
</g>
<!-- Category&#45;&gt;Category -->
<g id="edge5" class="edge"><title>Category&#45;&gt;Category</title>
<path fill="none" stroke="#cd1c2f" d="M238.212,-175.496C252.634,-175.338 264.049,-170.84 264.049,-162 264.049,-153.16 252.634,-148.662 238.212,-148.504"/>
<ellipse fill="none" stroke="#cd1c2f" cx="233.94" cy="-175.31" rx="4" ry="4"/>
<ellipse fill="#cd1c2f" stroke="#cd1c2f" cx="233.94" cy="-148.69" rx="4" ry="4"/>
</g>
<!-- Country&#45;&gt;City -->
<g id="edge8" class="edge"><title>Country&#45;&gt;City</title>
<path fill="none" stroke="#1eb0c8" d="M684.138,-136.889C687.782,-130.175 691.75,-122.867 695.424,-116.098"/>
<ellipse fill="none" stroke="#1eb0c8" cx="682.156" cy="-140.54" rx="4.00002" ry="4.00002"/>
<polygon fill="#1eb0c8" stroke="#1eb0c8" points="695.426,-116.096 704.151,-109.454 697.811,-111.701 700.197,-107.307 700.197,-107.307 700.197,-107.307 697.811,-111.701 696.242,-105.16 695.426,-116.096 695.426,-116.096"/>
</g>
<!-- Product&#45;&gt;Reservation -->
<g id="edge12" class="edge"><title>Product&#45;&gt;Reservation</title>
<path fill="none" stroke="#372c38" d="M276.271,-67.6111C284.925,-59.6408 294.789,-50.5552 303.63,-42.4126"/>
<ellipse fill="none" stroke="#372c38" cx="273.237" cy="-70.406" rx="4.00002" ry="4.00002"/>
<polygon fill="#372c38" stroke="#372c38" points="303.723,-42.3264 314.127,-38.8616 307.401,-38.939 311.079,-35.5516 311.079,-35.5516 311.079,-35.5516 307.401,-38.939 308.03,-32.2416 303.723,-42.3264 303.723,-42.3264"/>
</g>
</g>
</svg>
