<?xml version="1.0" encoding="UTF-8" standalone="no"?>
<!DOCTYPE svg PUBLIC "-//W3C//DTD SVG 1.1//EN"
 "http://www.w3.org/Graphics/SVG/1.1/DTD/svg11.dtd">
<!-- Generated by graphviz version 2.36.0 (20140111.2315)
 -->
<!-- Title: models_diagram Pages: 1 -->
<svg width="951pt" height="230pt"
 viewBox="0.00 0.00 951.00 230.00" xmlns="http://www.w3.org/2000/svg" xmlns:xlink="http://www.w3.org/1999/xlink">
<g id="graph0" class="graph" transform="scale(1 1) rotate(0) translate(4 226)">
<title>models_diagram</title>
<polygon fill="none" stroke="none" points="-4,4 -4,-226 947,-226 947,4 -4,4"/>
<!-- _diagram_info -->
<g id="node1" class="node"><title>_diagram_info</title>
<text text-anchor="start" x="72.5" y="-207.6" font-family="Times,serif" font-size="13.00">Models diagram</text>
<text text-anchor="start" x="72.5" y="-193.6" font-family="Times,serif" font-size="13.00">Date: May 12 2017 &#45; 22:09</text>
<text text-anchor="start" x="72.5" y="-179.6" font-family="Times,serif" font-size="13.00">Migration version: 20170510104527</text>
<text text-anchor="start" x="72.5" y="-165.6" font-family="Times,serif" font-size="13.00">Generated by RailRoady 1.5.2</text>
<text text-anchor="start" x="72.5" y="-151.6" font-family="Times,serif" font-size="13.00">http://railroady.prestonlee.com</text>
</g>
<!-- ApplicationRecord -->
<g id="node2" class="node"><title>ApplicationRecord</title>
<ellipse fill="none" stroke="black" cx="436" cy="-183" rx="96.2631" ry="18"/>
<text text-anchor="middle" x="436" y="-179.3" font-family="Times,serif" font-size="14.00">ApplicationRecord</text>
</g>
<!-- Building -->
<g id="node3" class="node"><title>Building</title>
<ellipse fill="none" stroke="black" cx="50" cy="-90" rx="50.0684" ry="18"/>
<text text-anchor="middle" x="50" y="-86.3" font-family="Times,serif" font-size="14.00">Building</text>
</g>
<!-- ApplicationRecord&#45;&gt;Building -->
<g id="edge1" class="edge"><title>ApplicationRecord&#45;&gt;Building</title>
<path fill="none" stroke="black" d="M397.764,-166.38C377.836,-158.731 352.903,-149.918 330,-144 233.647,-119.105 206.096,-129.815 109,-108 101.72,-106.364 94.0094,-104.352 86.6487,-102.291"/>
</g>
<!-- Category -->
<g id="node4" class="node"><title>Category</title>
<ellipse fill="none" stroke="black" cx="172" cy="-90" rx="53.4184" ry="18"/>
<text text-anchor="middle" x="172" y="-86.3" font-family="Times,serif" font-size="14.00">Category</text>
</g>
<!-- ApplicationRecord&#45;&gt;Category -->
<g id="edge2" class="edge"><title>ApplicationRecord&#45;&gt;Category</title>
<path fill="none" stroke="black" d="M394.029,-166.73C374.583,-159.712 351.148,-151.337 330,-144 288.588,-129.633 240.856,-113.709 208.787,-103.102"/>
</g>
<!-- City -->
<g id="node5" class="node"><title>City</title>
<ellipse fill="none" stroke="black" cx="292" cy="-18" rx="30.3206" ry="18"/>
<text text-anchor="middle" x="292" y="-14.3" font-family="Times,serif" font-size="14.00">City</text>
</g>
<!-- ApplicationRecord&#45;&gt;City -->
<g id="edge3" class="edge"><title>ApplicationRecord&#45;&gt;City</title>
<path fill="none" stroke="black" d="M396,-166.477C350.095,-148.263 280.174,-119.136 273,-108 258.539,-85.5536 271.451,-53.9567 281.898,-35.0731"/>
</g>
<!-- Country -->
<g id="node6" class="node"><title>Country</title>
<ellipse fill="none" stroke="black" cx="331" cy="-90" rx="48.6179" ry="18"/>
<text text-anchor="middle" x="331" y="-86.3" font-family="Times,serif" font-size="14.00">Country</text>
</g>
<!-- ApplicationRecord&#45;&gt;Country -->
<g id="edge5" class="edge"><title>ApplicationRecord&#45;&gt;Country</title>
<path fill="none" stroke="black" d="M416.741,-165.309C397.559,-148.685 368.319,-123.343 349.432,-106.975"/>
</g>
<!-- Cover -->
<g id="node7" class="node"><title>Cover</title>
<ellipse fill="none" stroke="black" cx="436" cy="-90" rx="38.0212" ry="18"/>
<text text-anchor="middle" x="436" y="-86.3" font-family="Times,serif" font-size="14.00">Cover</text>
</g>
<!-- ApplicationRecord&#45;&gt;Cover -->
<g id="edge6" class="edge"><title>ApplicationRecord&#45;&gt;Cover</title>
<path fill="none" stroke="black" d="M436,-164.884C436,-148.614 436,-124.284 436,-108.04"/>
</g>
<!-- Location -->
<g id="node8" class="node"><title>Location</title>
<ellipse fill="none" stroke="black" cx="544" cy="-90" rx="51.0191" ry="18"/>
<text text-anchor="middle" x="544" y="-86.3" font-family="Times,serif" font-size="14.00">Location</text>
</g>
<!-- ApplicationRecord&#45;&gt;Location -->
<g id="edge7" class="edge"><title>ApplicationRecord&#45;&gt;Location</title>
<path fill="none" stroke="black" d="M455.809,-165.309C475.539,-148.685 505.615,-123.343 525.041,-106.975"/>
</g>
<!-- Product -->
<g id="node9" class="node"><title>Product</title>
<ellipse fill="none" stroke="black" cx="661" cy="-90" rx="48.1437" ry="18"/>
<text text-anchor="middle" x="661" y="-86.3" font-family="Times,serif" font-size="14.00">Product</text>
</g>
<!-- ApplicationRecord&#45;&gt;Product -->
<g id="edge8" class="edge"><title>ApplicationRecord&#45;&gt;Product</title>
<path fill="none" stroke="black" d="M474.423,-166.46C518.227,-148.744 589.004,-120.118 629.629,-103.688"/>
</g>
<!-- Size -->
<g id="node10" class="node"><title>Size</title>
<ellipse fill="none" stroke="black" cx="757" cy="-90" rx="29.3479" ry="18"/>
<text text-anchor="middle" x="757" y="-86.3" font-family="Times,serif" font-size="14.00">Size</text>
</g>
<!-- ApplicationRecord&#45;&gt;Size -->
<g id="edge9" class="edge"><title>ApplicationRecord&#45;&gt;Size</title>
<path fill="none" stroke="black" d="M496.493,-168.979C554.15,-155.903 643.04,-133.998 718,-108 723.304,-106.161 728.895,-103.915 734.137,-101.667"/>
</g>
<!-- Sportground -->
<g id="node11" class="node"><title>Sportground</title>
<ellipse fill="none" stroke="black" cx="874" cy="-90" rx="69.3156" ry="18"/>
<text text-anchor="middle" x="874" y="-86.3" font-family="Times,serif" font-size="14.00">Sportground</text>
</g>
<!-- ApplicationRecord&#45;&gt;Sportground -->
<g id="edge10" class="edge"><title>ApplicationRecord&#45;&gt;Sportground</title>
<path fill="none" stroke="black" d="M498.617,-169.264C570.283,-154.648 691.165,-129.873 795,-108 803.923,-106.12 813.408,-104.099 822.594,-102.13"/>
</g>
<!-- Country&#45;&gt;City -->
<g id="edge4" class="edge"><title>Country&#45;&gt;City</title>
<path fill="none" stroke="#8f8b72" d="M317.567,-64.8894C313.826,-58.1752 309.755,-50.8673 305.983,-44.0979"/>
<ellipse fill="none" stroke="#8f8b72" cx="319.612" cy="-68.5607" rx="4.00002" ry="4.00002"/>
<polygon fill="#8f8b72" stroke="#8f8b72" points="305.952,-44.0427 305.016,-33.1168 303.519,-39.6748 301.085,-35.307 301.085,-35.307 301.085,-35.307 303.519,-39.6748 297.154,-37.4972 305.952,-44.0427 305.952,-44.0427"/>
</g>
</g>
</svg>
